<?xml version="1.0" encoding="UTF-8"?>
<svg version="1.1" xmlns="http://www.w3.org/2000/svg" xmlns:xlink="http://www.w3.org/1999/xlink" viewBox="0 0 1500 1500"
     width="1500" height="1500" x="0px" y="0px">


    <!-- ITEM 0 -->
    <g>
        <defs>
            <clipPath id="clip-path-id-viewbox-item-0">
                <rect x="0.0" y="0.0" width="35.0" height="35.0"/>
            </clipPath>
        </defs>
        <g transform="translate(0.0 0.0) rotate(0.0 750.0 750.0) scale(42.857142857142854 42.857142857142854)">
            <g clip-path="url(#clip-path-id-viewbox-item-0)" transform="translate(-0.0 -0.0)">
                <title>Asset 138</title>
                <g id="Layer_2-i0" data-name="Layer 2">
                    <g id="Layer_1-2-i0" data-name="Layer 1">
                        <rect width="35" height="35" fill="#00000000"/>
                    </g>
                </g>
            </g>
        </g>
    </g>

    <!-- ITEM 1 -->
    <g>
        <defs>
            <clipPath id="clip-path-id-viewbox-item-1">
                <rect x="0.0" y="0.0" width="706.292" height="600.0"/>
            </clipPath>
        </defs>
        <g transform="translate(105.0 136.0) rotate(0.0 646.5 550.5) scale(1.8306875909680416 1.835)">
            <g clip-path="url(#clip-path-id-viewbox-item-1)" transform="translate(-0.0 -0.0)">
                <defs>
                    <linearGradient id="linear-gradient-i1" x1="653.197" y1="1239.373" x2="653.197" y2="1386.381"
                                    gradientTransform="translate(0 -1170.524)" gradientUnits="userSpaceOnUse">
                        <stop offset="0.26" stop-color="#cae6c4"/>
                        <stop offset="0.48" stop-color="#cde7c7"/>
                        <stop offset="0.65" stop-color="#d6ecd1"/>
                        <stop offset="0.82" stop-color="#e5f3e2"/>
                        <stop offset="0.97" stop-color="#fbfdfa"/>
                        <stop offset="1" stop-color="#fff"/>
                    </linearGradient>
                    <linearGradient id="linear-gradient-2-i1" x1="-14253.927" y1="1257.245" x2="-14253.927"
                                    y2="1311.675" gradientTransform="matrix(-1, 0, 0, 1, -14189.068, -1170.524)"
                                    gradientUnits="userSpaceOnUse">
                        <stop offset="0" stop-color="#ffd8a1"/>
                        <stop offset="1" stop-color="#fff"/>
                    </linearGradient>
                    <linearGradient id="linear-gradient-3-i1" x1="-14825.538" y1="1365.461" x2="-14825.538"
                                    y2="1419.321" xlink:href="#linear-gradient-2-i1"/>
                    <linearGradient id="linear-gradient-4-i1" x1="560.512" y1="1651.847" x2="560.512" y2="1765.689"
                                    gradientTransform="translate(0 -1170.524)" gradientUnits="userSpaceOnUse">
                        <stop offset="0" stop-color="#ffddb5"/>
                        <stop offset="1" stop-color="#fff"/>
                    </linearGradient>
                    <linearGradient id="linear-gradient-5-i1" x1="558.2" y1="1692.257" x2="558.2" y2="1767.303"
                                    gradientTransform="matrix(-1, 0, 0, 1, 654.262, -1170.524)"
                                    xlink:href="#linear-gradient-4-i1"/>
                </defs>
                <title>background_7</title>
                <g id="Layer_2-i1" data-name="Layer 2">
                    <g id="Layer_1-2-i1" data-name="Layer 1">
                        <g opacity="0.3">
                            <path d="M704.041,2.251v595.4H2.251V2.251h701.79M706.292,0H0V600H706.292V0Z"
                                  fill="#00000000"/>
                            <rect y="425.269" width="706.292" height="2.148" fill="#00000000"/>
                            <rect y="339.437" width="706.292" height="2.148" fill="#00000000"/>
                            <rect y="425.269" width="706.292" height="2.148" fill="#00000000"/>
                            <rect y="511.202" width="706.292" height="2.148" fill="#00000000"/>
                            <rect y="253.504" width="706.292" height="2.148" fill="#00000000"/>
                            <rect y="167.57" width="706.292" height="2.148" fill="#00000000"/>
                            <rect y="81.637" width="706.292" height="2.148" fill="#00000000"/>
                        </g>
                        <path
                            d="M653.2,215.857a4.1,4.1,0,0,1-4.092-4.092V72.941a4.092,4.092,0,1,1,8.184,0V211.765A4.1,4.1,0,0,1,653.2,215.857Z"
                            fill="url(#linear-gradient-i1)"/>
                        <path
                            d="M653.2,103.325a1.983,1.983,0,0,1-.716-.1,4.138,4.138,0,0,1-3.376-4.7,21.23,21.23,0,0,1,22.711-17.8A4.1,4.1,0,0,1,671.2,88.9a13.063,13.063,0,0,0-14.015,11.049A3.9,3.9,0,0,1,653.2,103.325Z"
                            fill="#cae6c4"/>
                        <path
                            d="M653.2,103.325a4.059,4.059,0,0,1-3.99-3.376A13.128,13.128,0,0,0,635.192,88.9a4.1,4.1,0,1,1-.614-8.184,21.164,21.164,0,0,1,22.711,17.8,4.062,4.062,0,0,1-3.376,4.7A1.508,1.508,0,0,1,653.2,103.325Z"
                            fill="#cae6c4"/>
                        <path
                            d="M653.2,123.785a2,2,0,0,1-.716-.1,4.138,4.138,0,0,1-3.376-4.706,21.23,21.23,0,0,1,22.711-17.8,4.1,4.1,0,0,1-.614,8.185,13.062,13.062,0,0,0-14.015,11.048A3.981,3.981,0,0,1,653.2,123.785Z"
                            fill="#cae6c4"/>
                        <path
                            d="M653.2,123.785a4.059,4.059,0,0,1-3.99-3.376,13.126,13.126,0,0,0-14.015-11.048,4.1,4.1,0,0,1-.614-8.185,21.166,21.166,0,0,1,22.711,17.8,4.063,4.063,0,0,1-3.376,4.706A1.521,1.521,0,0,1,653.2,123.785Z"
                            fill="#cae6c4"/>
                        <circle cx="610.639" cy="145.371" r="3.069" fill="#bfd9ff"/>
                        <circle cx="77.136" cy="208.9" r="3.069" fill="#bfd9ff"/>
                        <circle cx="112.839" cy="73.555" r="3.069" fill="#bfd9ff"/>
                        <circle cx="607.57" cy="26.701" r="3.069" fill="#bfd9ff"/>
                        <circle cx="32.225" cy="371.151" r="2.762" fill="#bfd9ff"/>
                        <path d="M1.637,130.332c0-27.519,24.348-56.47,55.447-38.465,30.9,18,19.949,46.24,71,53.3H1.637Z"
                              fill="url(#linear-gradient-2-i1)"/>
                        <path
                            d="M705.678,204.706a10.178,10.178,0,0,0-17.7-6.854c-8.389,9.207-19.642,15.959-33.658,12.583-53.2-12.993-43.376,41.023-87.161,42.353H705.78V204.706Z"
                            fill="url(#linear-gradient-3-i1)"/>
                        <path
                            d="M414.834,599.9c96.675,0,131.151-119.8,182.2-106.19,29.668,7.878,49.412-12.583,67.826-31.1,15.039-15.039,41.33-4.809,41.33,15.959V599.9Z"
                            fill="url(#linear-gradient-4-i1)"/>
                        <path
                            d="M192.123,599.9c-63.734,0-86.445-78.875-120.1-70.077-19.641,5.217-32.531-8.286-44.7-20.46C17.391,499.437,0,506.189,0,519.9v79.9Z"
                            fill="url(#linear-gradient-5-i1)"/>
                    </g>
                </g>
            </g>
        </g>
    </g>

    <!-- ITEM 2 -->
    <g>
        <defs>
            <clipPath id="clip-path-id-crop-item-2">

                <rect transform="scale(0.5021745379876796 0.503027360988526)" x="0.0" y="0.0" width="487.0"
                      height="539.0"/>

            </clipPath>

            <clipPath id="clip-path-id-viewbox-item-2">
                <rect x="0.0" y="0.0" width="244.559" height="569.93"/>
            </clipPath>
        </defs>
        <g clip-path="url(#clip-path-id-crop-item-2)"
           transform="translate(654.0 208.0) rotate(0.0 243.5 566.5) scale(1.9913395131645124 1.9879634341059431)">
            <g clip-path="url(#clip-path-id-viewbox-item-2)" transform="translate(-0.0 -0.0)">
                <defs>
                    <linearGradient id="linear-gradient-i2" x1="142.486" y1="3013.289" x2="142.486" y2="2679.332"
                                    gradientTransform="matrix(1, 0, 0, -1, 0, 3215.671)" gradientUnits="userSpaceOnUse">
                        <stop offset="0" stop-color="#9774ac"/>
                        <stop offset="0.401" stop-color="#47a6d3"/>
                        <stop offset="0.501" stop-color="#a7a7ae"/>
                        <stop offset="0.591" stop-color="#e89ac0"/>
                        <stop offset="1" stop-color="#bfe7d1"/>
                    </linearGradient>
                    <linearGradient id="linear-gradient-2-i2" x1="66.373" y1="2983.884" x2="66.373" y2="2627.281"
                                    gradientTransform="matrix(1, 0.013, 0.013, -1, 68.092, 3184.68)"
                                    xlink:href="#linear-gradient-i2"/>
                    <linearGradient id="linear-gradient-3-i2" x1="8209.516" y1="3089.459" x2="8209.516" y2="2728.205"
                                    gradientTransform="translate(8351.981 3184.815) rotate(179.255)"
                                    xlink:href="#linear-gradient-i2"/>
                    <linearGradient id="linear-gradient-4-i2" x1="208.524" y1="1043.73" x2="208.524" y2="1123.224"
                                    gradientTransform="matrix(1, 0, 0, -1, 0, 1253.147)" gradientUnits="userSpaceOnUse">
                        <stop offset="0" stop-color="#6b9c83"/>
                        <stop offset="0.4" stop-color="#a6a6a4"/>
                        <stop offset="0.5" stop-color="#9f9fc8"/>
                        <stop offset="0.59" stop-color="#9fccec"/>
                        <stop offset="1" stop-color="#ffe7b0"/>
                    </linearGradient>
                    <linearGradient id="linear-gradient-5-i2" x1="5777.144" y1="1043.73" x2="5777.144" y2="1123.224"
                                    gradientTransform="translate(5852.59 1253.147) rotate(180)"
                                    xlink:href="#linear-gradient-4-i2"/>
                    <linearGradient id="linear-gradient-6-i2" x1="171.731" y1="995.955" x2="171.731" y2="1075.449"
                                    gradientTransform="matrix(1, 0.017, 0.017, -1, -49.227, 1202.17)"
                                    xlink:href="#linear-gradient-4-i2"/>
                </defs>
                <title>man_reading_skin_tone_1</title>
                <g id="Layer_2-i2" data-name="Layer 2">
                    <g id="Layer_1-2-i2" data-name="Layer 1">
                        <path
                            d="M99.448,201.87c-7.277,21.03,3.347,49.628,27,48.609,18.265-.8,19.5-.073,27.215-.437,24.3-1.018,40.023-26.487,32.018-49.482Z"
                            fill="url(#linear-gradient-i2)"/>
                        <path
                            d="M185.678,200.633C191.645,213,216.968,312.186,226.21,343.4s-22.7,206.806-22.486,210.3l-49.845-1.165s-.073-202.149-4.512-214.883l-33.11-114.606Z"
                            fill="url(#linear-gradient-2-i2)"/>
                        <path
                            d="M240.618,569.93H161.737a7.531,7.531,0,0,1-7.567-7.422l-.219-9.97,49.846.51,37.767,9.314a3.845,3.845,0,0,1-.946,7.568Z"
                            fill="#2b2b2b"/>
                        <path
                            d="M99.3,200.633C93.336,213,68.012,312.186,58.771,343.4,49.6,374.621,40.943,550.21,40.724,553.7l48.464,4.511s41.987-207.825,46.426-220.559l33.109-114.609Z"
                            fill="url(#linear-gradient-3-i2)"/>
                        <path
                            d="M3.831,569.93H82.712a7.531,7.531,0,0,0,7.567-7.422l.219-9.97-49.846.51L2.885,562.362a3.845,3.845,0,0,0,.946,7.568Z"
                            fill="#2b2b2b"/>
                        <path
                            d="M142.527,318.663h-.219a1.133,1.133,0,0,1-.8-1.237l6.04-27.288a1.042,1.042,0,1,1,2.05.378c0,.019-.008.039-.013.058l-6.04,27.288A1.167,1.167,0,0,1,142.527,318.663Z"
                            fill="#2b2b2b"/>
                        <circle cx="108.576" cy="47.244" r="12.192" fill="#ea7068"/>
                        <path
                            d="M230.876,176.022,242.6,201.549a21.644,21.644,0,0,1-10.668,28.67c-.095.095-.381.095-.476.19h0a21.626,21.626,0,0,1-25.336-6.286L172.488,182.4l6.954-67.818L195.348,128.4A141.925,141.925,0,0,1,230.876,176.022Z"
                            fill="url(#linear-gradient-4-i2)"/>
                        <path
                            d="M53.14,176.022,41.425,201.549A21.688,21.688,0,0,0,52,230.219c.1.095.381.095.477.19h0a21.626,21.626,0,0,0,25.336-6.286l33.623-41.72-6.953-67.818L88.573,128.4A141.68,141.68,0,0,0,53.14,176.022Z"
                            fill="url(#linear-gradient-5-i2)"/>
                        <path
                            d="M185.633,201.168a41.06,41.06,0,0,1-2.1-12.669c0-7.239,17.526-18.383,16.955-40.386-.381-16.859-18.764-41.719-48.292-41.243l-23.812,1.143c-25.908.381-46.292,23.241-47.339,41.243h-.1a7.624,7.624,0,0,0,.1,1.524v.477h0c1.619,30,22.574,28.575,14.858,49.72Z"
                            fill="url(#linear-gradient-6-i2)"/>
                        <circle cx="172.965" cy="48.387" r="12.192" fill="#ea7068"/>
                        <path d="M154.3,125.634l21.145-13.43s-8.572-5.62-23.241-5.429Z" fill="#2b2b2b"/>
                        <path
                            d="M122.2,110.68l1.524-57.34,34.576-.667,2.858,57.245a18.7,18.7,0,0,1-17.417,19.9l-.109.007c-.381,0-.762.1-1.143.1h-1.524A18.74,18.74,0,0,1,122.2,111.21v-.53Z"
                            fill="#ea7068"/>
                        <polygon points="129.435 84.868 160.677 101.25 159.534 79.534 129.435 84.868" fill="#2b2b2b"/>
                        <path id="_Path_-i2" data-name=" Path "
                              d="M141.056,87.535h0a29.772,29.772,0,0,1-29.051-27.051L109.623,34A32.445,32.445,0,0,1,142.675,2.191h0a32.443,32.443,0,0,1,31.814,33.051h0l-3.334,26.289A29.978,29.978,0,0,1,141.056,87.535Z"
                              fill="#ea7068"/>
                        <ellipse cx="126.959" cy="46.291" rx="3.238" ry="2.286" fill="#2b2b2b"/>
                        <ellipse cx="155.058" cy="46.958" rx="3.334" ry="2.095" fill="#2b2b2b"/>
                        <path
                            d="M140.77,57.34a1,1,0,0,1-.857-.476,1.076,1.076,0,0,1,.381-1.429l2.857-1.809a1.38,1.38,0,0,0,.242-1.938c-.016-.021-.033-.042-.051-.062a12.025,12.025,0,0,1-3.048-8.382v-.857a1.048,1.048,0,1,1,2.095-.065c0,.022,0,.043,0,.065v.857a9.984,9.984,0,0,0,2.477,6.858l.095.1a3.619,3.619,0,0,1-.571,5.048l-.1.1-2.952,1.9A1.213,1.213,0,0,1,140.77,57.34Z"
                            fill="#2b2b2b"/>
                        <path d="M136.389,62.674c.666,8.287,9.81,6.1,10,.1Z" fill="#fff"/>
                        <path
                            d="M111.433,54.292l3.048.1.476-20.192a11.856,11.856,0,0,1,12.082-11.624l.11,0a9.4,9.4,0,0,1,2.858.381l8,2.191a11.748,11.748,0,0,0,6.286,0l8.954-2.381a11.832,11.832,0,0,1,14.544,8.274l.029.108a11.953,11.953,0,0,1,.381,2.571l.572,20,3.238.1L175.632,24C178.68,4.569,163.344,0,142.58,0s-36.1,4.381-34.1,23.622Z"
                            fill="#2b2b2b"/>
                        <path d="M188.49,190.5s10.1,21.812,21.527,27.241V193.452Z" fill="#2b2b2b"/>
                        <path d="M94.288,185.261a79.329,79.329,0,0,1-20.955,32.575V187.452Z" fill="#2b2b2b"/>
                        <polygon
                            points="209.922 217.741 148.866 232.124 148.866 138.398 209.922 124.015 209.922 217.741"
                            fill="#4c6ce0"/>
                        <polygon points="73.333 217.741 134.388 232.124 134.388 138.398 73.333 124.015 73.333 217.741"
                                 fill="#4c6ce0"/>
                        <rect x="133.626" y="138.398" width="16.097" height="93.726" fill="#4c7de0"/>
                        <path
                            d="M229.924,186.023a20.652,20.652,0,0,1-23.527,17.24,8.438,8.438,0,0,1-1.333-.286l-2.382-.476a20.387,20.387,0,0,1,4.858-40.291l2.382.1a20.759,20.759,0,0,1,20.1,21.145,7.689,7.689,0,0,1-.095,2.572Z"
                            fill="#ea7068"/>
                        <path
                            d="M51.9,183.261A20.652,20.652,0,0,0,75.429,200.5a8.414,8.414,0,0,0,1.333-.286l2.382-.476a20.387,20.387,0,0,0-4.858-40.291l-2.381.095a20.761,20.761,0,0,0-20.1,21.146,11.469,11.469,0,0,0,.095,2.572Z"
                            fill="#ea7068"/>
                    </g>
                </g>
            </g>
        </g>
    </g>

    <!-- ITEM 3 -->
    <g>
        <defs>
            <clipPath id="clip-path-id-crop-item-3">

                <rect transform="scale(0.5433401486988848 0.5423810444874275)" x="0.0" y="0.0" width="537.0"
                      height="429.0"/>

            </clipPath>

            <clipPath id="clip-path-id-viewbox-item-3">
                <rect x="0.0" y="0.0" width="292.317" height="560.822"/>
            </clipPath>
        </defs>
        <g clip-path="url(#clip-path-id-crop-item-3)"
           transform="translate(281.0 256.0) rotate(0.0 269.0 517.0) scale(1.8404677114228731 1.8437222505536517)">
            <g clip-path="url(#clip-path-id-viewbox-item-3)" transform="translate(-0.0 -0.0)">
                <defs>
                    <linearGradient id="linear-gradient-i3" x1="102.193" y1="1552.864" x2="102.193" y2="1175.28"
                                    gradientTransform="translate(0 -1170.524)" gradientUnits="userSpaceOnUse">
                        <stop offset="0" stop-color="#77879d"/>
                        <stop offset="0.41" stop-color="#fdbb6d"/>
                        <stop offset="0.5" stop-color="#fdbb9f"/>
                        <stop offset="0.6" stop-color="#d1d2d1"/>
                        <stop offset="1" stop-color="#feceaa"/>
                    </linearGradient>
                    <linearGradient id="linear-gradient-2-i3" x1="209.108" y1="1273.799" x2="209.108" y2="1471.852"
                                    gradientTransform="translate(0 -1170.524)" gradientUnits="userSpaceOnUse">
                        <stop offset="0" stop-color="#b8a7d3"/>
                        <stop offset="0.4" stop-color="#ed4861"/>
                        <stop offset="0.5" stop-color="#f4837d"/>
                        <stop offset="0.59" stop-color="#feceaa"/>
                        <stop offset="1" stop-color="#b7d5ea"/>
                    </linearGradient>
                    <linearGradient id="linear-gradient-3-i3" x1="163.656" y1="1273.681" x2="163.656" y2="1486.945"
                                    xlink:href="#linear-gradient-2-i3"/>
                    <linearGradient id="linear-gradient-4-i3" x1="163.696" y1="1786.922" x2="163.696" y2="1383.748"
                                    gradientTransform="translate(0 -1170.524)" gradientUnits="userSpaceOnUse">
                        <stop offset="0" stop-color="#6b9c83"/>
                        <stop offset="0.4" stop-color="#a6a6a4"/>
                        <stop offset="0.5" stop-color="#9f9fc8"/>
                        <stop offset="0.59" stop-color="#9fccec"/>
                        <stop offset="1" stop-color="#ffe7b0"/>
                    </linearGradient>
                    <linearGradient id="linear-gradient-5-i3" x1="2067.392" y1="-584.293" x2="2067.392" y2="-241.159"
                                    gradientTransform="matrix(-1, 0, 0, 1, 2265.21, 792)"
                                    gradientUnits="userSpaceOnUse">
                        <stop offset="0" stop-color="#77879d"/>
                        <stop offset="0.089" stop-color="#a1978e"/>
                        <stop offset="0.188" stop-color="#c9a780"/>
                        <stop offset="0.279" stop-color="#e5b275"/>
                        <stop offset="0.358" stop-color="#f7b96f"/>
                        <stop offset="0.415" stop-color="#fdbb6d"/>
                        <stop offset="0.499" stop-color="#fdbb9f"/>
                        <stop offset="0.599" stop-color="#d1d2d1"/>
                        <stop offset="1" stop-color="#feceaa"/>
                    </linearGradient>
                    <linearGradient id="linear-gradient-6-i3" x1="2110.315" y1="-584.293" x2="2110.315" y2="-241.159"
                                    xlink:href="#linear-gradient-5-i3"/>
                    <linearGradient id="linear-gradient-7-i3" x1="162.668" y1="1527.881" x2="162.668" y2="1171.394"
                                    xlink:href="#linear-gradient-i3"/>
                    <linearGradient id="linear-gradient-8-i3" x1="153.153" y1="1274.162" x2="153.153" y2="1479.647"
                                    xlink:href="#linear-gradient-2-i3"/>
                </defs>
                <title>girl_3</title>
                <g id="Layer_2-i3" data-name="Layer 2">
                    <g id="Layer_1-2-i3" data-name="Layer 1">
                        <path
                            d="M191.957,267.408c6.035-35.089-9.208-36.829,8.388-74.271s-28.03-84.194-26.9-119.079c.409-11.663,7.57-30.384,9.616-47.366,2.66-21.279-23.427-33.555-38.26-18.107a82.491,82.491,0,0,0-12.481,17.7A22.039,22.039,0,0,1,127,32.83c-6.956,5.831-14.015,11.56-23.734,19.642C69.6,80.707,95.486,124.9,85.767,150.989s-67.314,35.4-82.148,92.583C-28.708,367.459,165.461,421.065,191.957,267.408Z"
                            fill="url(#linear-gradient-i3)"/>
                        <path d="M270.115,264.851l16.573,18.721A22.478,22.478,0,0,1,255.793,316L242.8,305.464"
                              fill="#ea7068"/>
                        <path
                            d="M242.8,305.464l-67.417-54.22a24.443,24.443,0,0,1-8.7-14.322l-.409-2.25-17.8-92.89a31.068,31.068,0,0,1,60.972-11.765l17.8,92.89-9-16.573,51.867,58.517"
                            fill="url(#linear-gradient-2-i3)"/>
                        <path id="_Clipping_Path_-i3" data-name=" Clipping Path "
                              d="M222.136,200.707c-3.581-31.2-24.757-27.417-18.926-49.309s-6.854-50.333-30.9-47.57c-18.517,2.046-19.847,1.432-27.724,2.353-24.655,2.762-38.875,29.769-29.054,52.583a36.167,36.167,0,0,1,3.069,12.174c.716,7.058-15.55,19.437-13.2,40.92Z"
                              fill="url(#linear-gradient-3-i3)"/>
                        <path
                            d="M105.409,211.858c1.842,16.471,21.893,39.284,50.64,36.317L179.169,245c26.189-2.762,44.706-28.44,42.66-46.24Z"
                            fill="url(#linear-gradient-4-i3)"/>
                        <path
                            d="M223.261,198.9c3.265,13.7,6.389,35.141,8.519,48.913q3.087,20.658,5.324,41.53c.71,6.958,1.42,13.915,1.988,20.872l.852,10.436.781,10.436.355,5.253.284,5.254L242,352.1c.355,6.958.78,13.986,1.135,20.943,1.42,27.971,2.343,56.013,2.414,84.2q.107,21.084-.5,42.311l-.355,10.578-.213,5.324-.284,5.324c-.213,3.55-.355,7.1-.568,10.649-.284,3.55-.426,7.1-.781,10.649l-50.12,6.6L170.727,382.276c-1.917-13.843-3.55-27.687-5.254-41.6L160.362,299l-10.294-83.273Z"
                            fill="url(#linear-gradient-5-i3)"/>
                        <g opacity="0.3">
                            <path
                                d="M225.674,514.889l-4.827-1.775a3.548,3.548,0,1,1,2.414-6.673l4.827,1.775a3.5,3.5,0,0,1,2.13,4.543,3.591,3.591,0,0,1-3.337,2.343A3.317,3.317,0,0,1,225.674,514.889Z"
                                fill="#fff"/>
                            <path
                                d="M204.8,541.085l-2.2-4.756a3.525,3.525,0,1,1,6.389-2.982l2.2,4.757a3.5,3.5,0,0,1-1.7,4.685,2.883,2.883,0,0,1-1.491.355A3.5,3.5,0,0,1,204.8,541.085Z"
                                fill="#fff"/>
                            <path
                                d="M235.045,539.239a3.5,3.5,0,0,1-2.129-4.543l1.774-4.828a3.549,3.549,0,0,1,6.674,2.414l-1.775,4.828a3.59,3.59,0,0,1-3.337,2.342A3.317,3.317,0,0,1,235.045,539.239Z"
                                fill="#fff"/>
                            <path
                                d="M188.12,511.837l4.756-2.2a3.525,3.525,0,1,1,2.982,6.389l-4.757,2.2a3.816,3.816,0,0,1-1.491.355,3.556,3.556,0,0,1-.851-.142l-.852-6.532C187.978,511.907,188.049,511.837,188.12,511.837Z"
                                fill="#fff"/>
                            <path
                                d="M223.332,404.284l-4.828-1.775a3.549,3.549,0,1,1,2.414-6.674l4.827,1.775a3.5,3.5,0,0,1,2.13,4.544,3.591,3.591,0,0,1-3.337,2.343A3.315,3.315,0,0,1,223.332,404.284Z"
                                fill="#fff"/>
                            <path
                                d="M202.46,430.48l-2.2-4.757a3.526,3.526,0,0,1,6.39-2.982l2.2,4.757a3.5,3.5,0,0,1-1.7,4.685,2.877,2.877,0,0,1-1.49.355A3.5,3.5,0,0,1,202.46,430.48Z"
                                fill="#fff"/>
                            <path
                                d="M232.7,428.634a3.5,3.5,0,0,1-2.13-4.544l1.775-4.827a3.548,3.548,0,1,1,6.673,2.414l-1.775,4.827a3.591,3.591,0,0,1-3.337,2.343A3.315,3.315,0,0,1,232.7,428.634Z"
                                fill="#fff"/>
                            <path
                                d="M225.461,457.457l-4.9-1.775a3.548,3.548,0,1,1,2.414-6.673l4.9,1.774a3.549,3.549,0,0,1-1.207,6.887A3.606,3.606,0,0,1,225.461,457.457Z"
                                fill="#fff"/>
                            <path
                                d="M204.519,483.582l-2.2-4.686a3.572,3.572,0,1,1,6.46-3.052l2.2,4.685a3.577,3.577,0,0,1-1.7,4.756,3.816,3.816,0,0,1-1.491.355A3.676,3.676,0,0,1,204.519,483.582Z"
                                fill="#fff"/>
                            <path
                                d="M234.761,481.807a3.557,3.557,0,0,1-2.129-4.544l1.774-4.9a3.549,3.549,0,0,1,6.674,2.414l-1.775,4.9a3.544,3.544,0,0,1-4.544,2.13Z"
                                fill="#fff"/>
                            <path
                                d="M184,405.916a3.578,3.578,0,0,1,1.7-4.756l4.685-2.2a3.573,3.573,0,1,1,3.053,6.46l-4.686,2.2a3.807,3.807,0,0,1-1.49.355A3.677,3.677,0,0,1,184,405.916Z"
                                fill="#fff"/>
                            <path
                                d="M174.489,381.921l-2.2-4.685a3.573,3.573,0,1,1,6.461-3.053l2.2,4.685a3.579,3.579,0,0,1-1.7,4.757,3.816,3.816,0,0,1-1.491.355A3.677,3.677,0,0,1,174.489,381.921Z"
                                fill="#fff"/>
                            <path
                                d="M186.132,459.089a3.578,3.578,0,0,1,1.7-4.756l4.685-2.2a3.573,3.573,0,1,1,3.053,6.46l-4.686,2.2a3.816,3.816,0,0,1-1.491.355A3.677,3.677,0,0,1,186.132,459.089Z"
                                fill="#fff"/>
                            <path
                                d="M180.878,427.356l2.2,4.685a3.579,3.579,0,0,1-1.7,4.757,3.816,3.816,0,0,1-1.491.355,3.32,3.32,0,0,1-1.987-.639l-1.42-10.933A3.521,3.521,0,0,1,180.878,427.356Z"
                                fill="#fff"/>
                            <path
                                d="M220.989,293.678l-4.9-1.775a3.548,3.548,0,0,1,2.414-6.673l4.9,1.775a3.549,3.549,0,0,1-1.207,6.886A3.606,3.606,0,0,1,220.989,293.678Z"
                                fill="#fff"/>
                            <path
                                d="M200.117,319.874l-2.2-4.756a3.525,3.525,0,1,1,6.389-2.982l2.2,4.756a3.5,3.5,0,0,1-1.7,4.686,2.883,2.883,0,0,1-1.491.355A3.5,3.5,0,0,1,200.117,319.874Z"
                                fill="#fff"/>
                            <path
                                d="M230.36,318.028a3.5,3.5,0,0,1-2.13-4.543l1.775-4.828a3.548,3.548,0,0,1,6.673,2.414L234.9,315.9a3.59,3.59,0,0,1-3.336,2.343A3.317,3.317,0,0,1,230.36,318.028Z"
                                fill="#fff"/>
                            <path
                                d="M223.119,346.851l-4.9-1.775a3.548,3.548,0,1,1,2.414-6.673l4.9,1.775a3.549,3.549,0,0,1-1.206,6.886A3.606,3.606,0,0,1,223.119,346.851Z"
                                fill="#fff"/>
                            <path
                                d="M202.176,372.976l-2.2-4.685a3.573,3.573,0,1,1,6.461-3.053l2.2,4.685a3.579,3.579,0,0,1-1.7,4.757,3.807,3.807,0,0,1-1.49.355A3.677,3.677,0,0,1,202.176,372.976Z"
                                fill="#fff"/>
                            <path
                                d="M232.419,371.2a3.556,3.556,0,0,1-2.13-4.543l1.775-4.9a3.548,3.548,0,0,1,6.673,2.414l-1.775,4.9a3.542,3.542,0,0,1-4.543,2.13Z"
                                fill="#fff"/>
                            <path
                                d="M181.659,295.311a3.579,3.579,0,0,1,1.7-4.757l4.686-2.2a3.572,3.572,0,1,1,3.052,6.46l-4.685,2.2a3.816,3.816,0,0,1-1.491.355A3.677,3.677,0,0,1,181.659,295.311Z"
                                fill="#fff"/>
                            <path
                                d="M172.146,271.315l-2.2-4.685a3.573,3.573,0,0,1,6.46-3.053l2.2,4.686a3.578,3.578,0,0,1-1.7,4.756,3.816,3.816,0,0,1-1.491.355A3.677,3.677,0,0,1,172.146,271.315Z"
                                fill="#fff"/>
                            <path d="M162,300.919l-1.065,2.911L160.362,299l-.284-2.555A3.55,3.55,0,0,1,162,300.919Z"
                                  fill="#fff"/>
                            <path
                                d="M183.789,348.484a3.579,3.579,0,0,1,1.7-4.757l4.685-2.2a3.573,3.573,0,1,1,3.053,6.46l-4.685,2.2a3.816,3.816,0,0,1-1.491.355A3.677,3.677,0,0,1,183.789,348.484Z"
                                fill="#fff"/>
                            <path
                                d="M174.276,324.488l-2.2-4.685a3.573,3.573,0,0,1,6.461-3.053l2.2,4.686a3.578,3.578,0,0,1-1.7,4.756,3.816,3.816,0,0,1-1.491.355A3.677,3.677,0,0,1,174.276,324.488Z"
                                fill="#fff"/>
                            <path
                                d="M202.886,203.589l1.278,2.7a3.5,3.5,0,0,1-1.7,4.685,2.883,2.883,0,0,1-1.491.355,3.571,3.571,0,0,1-3.194-2.059l-1.917-4.046Z"
                                fill="#fff"/>
                            <path
                                d="M220.776,236.245l-4.9-1.774a3.549,3.549,0,0,1,2.414-6.674l4.9,1.775a3.549,3.549,0,0,1-1.207,6.886A3.606,3.606,0,0,1,220.776,236.245Z"
                                fill="#fff"/>
                            <path
                                d="M199.833,262.37l-2.2-4.685a3.573,3.573,0,0,1,6.461-3.053l2.2,4.686a3.578,3.578,0,0,1-1.7,4.756,3.816,3.816,0,0,1-1.491.355A3.677,3.677,0,0,1,199.833,262.37Z"
                                fill="#fff"/>
                            <path
                                d="M228.017,256.052l1.775-4.9a3.455,3.455,0,0,1,2.2-2.13c.568,3.621,1.065,7.312,1.561,11a3.664,3.664,0,0,1-2.271.781,3.606,3.606,0,0,1-1.207-.213A3.465,3.465,0,0,1,228.017,256.052Z"
                                fill="#fff"/>
                            <path
                                d="M181.446,237.878a3.578,3.578,0,0,1,1.7-4.756l4.686-2.2a3.572,3.572,0,0,1,3.052,6.46l-4.685,2.2a3.816,3.816,0,0,1-1.491.355A3.677,3.677,0,0,1,181.446,237.878Z"
                                fill="#fff"/>
                            <path
                                d="M177.613,209.41l.71,1.562a3.566,3.566,0,0,1-1.775,4.686,3.708,3.708,0,0,1-1.491.284,3.5,3.5,0,0,1-3.195-2.059l-1.277-2.84Z"
                                fill="#fff"/>
                            <path
                                d="M155.037,241.073a3.549,3.549,0,0,1,6.674,2.414l-1.775,4.827a3.493,3.493,0,0,1-3.337,2.343,3.938,3.938,0,0,1-1.207-.213,3.814,3.814,0,0,1-1.136-.71l-.568-4.757Z"
                                fill="#fff"/>
                        </g>
                        <path
                            d="M167.035,353.666l19.239,146.457c-2.2-16.683,14.553-52.25,7.454-73.548s13.488-63.893,1.278-82.635-6.176-54.806-2.7-77.31Z"
                            fill="#2b2b2b"/>
                        <path
                            d="M85.536,512.83l44.086,23.144c1.42-3.2,2.627-6.461,3.9-9.726l3.62-9.8,1.846-4.9,1.7-4.9,3.408-9.8c4.472-13.133,8.661-26.267,12.707-39.471q11.926-39.614,21.795-79.512c1.7-6.673,3.194-13.346,4.614-20.019l2.2-10.01,2.059-10.081c1.42-6.744,2.626-13.418,3.9-20.162l1.775-10.081.923-5.04.852-5.04c2.272-13.418,4.259-26.977,5.892-40.537.5-3.337.781-6.744,1.207-10.152.355-3.407.71-6.815.994-10.223l.852-10.222.213-3.479c12.92-7.6,21.013-21.653,20.091-32.514l-86.4,8.732c1.278,13.7-25.557,127-25.557,127l-3.124,20.233c-.993,6.744-1.987,13.489-3.123,20.233Z"
                            fill="url(#linear-gradient-6-i3)"/>
                        <g opacity="0.3">
                            <path
                                d="M123.233,501.614a3.5,3.5,0,0,1,1.7-4.686l4.756-2.2a3.526,3.526,0,0,1,2.982,6.39l-4.757,2.2a2.883,2.883,0,0,1-1.491.355A3.5,3.5,0,0,1,123.233,501.614Z"
                                fill="#fff"/>
                            <path d="M89.725,482.943l.568.213a3.549,3.549,0,0,1-1.207,6.886h-.355Z" fill="#fff"/>
                            <path
                                d="M113.649,477.618l-2.2-4.685a3.573,3.573,0,1,1,6.46-3.053l2.2,4.686a3.578,3.578,0,0,1-1.7,4.756,3.811,3.811,0,0,1-1.49.355A3.677,3.677,0,0,1,113.649,477.618Z"
                                fill="#fff"/>
                            <path
                                d="M97.179,514.25a3.556,3.556,0,0,1-2.13-4.543l1.775-4.9a3.548,3.548,0,1,1,6.673,2.414l-1.775,4.9a3.542,3.542,0,0,1-4.543,2.13Z"
                                fill="#fff"/>
                            <path
                                d="M115.353,521.349a3.578,3.578,0,0,1,4.756,1.7l2.2,4.686a3.55,3.55,0,0,1-.639,3.975l-7.1-3.691-.923-1.917A3.579,3.579,0,0,1,115.353,521.349Z"
                                fill="#fff"/>
                            <path
                                d="M160.149,389.375l-4.828-1.775a3.548,3.548,0,1,1,2.414-6.673l4.827,1.775a3.5,3.5,0,0,1,2.13,4.543,3.591,3.591,0,0,1-3.336,2.343A3.317,3.317,0,0,1,160.149,389.375Z"
                                fill="#fff"/>
                            <path
                                d="M139.277,415.571l-2.2-4.756a3.526,3.526,0,0,1,6.39-2.982l2.2,4.757a3.5,3.5,0,0,1-1.7,4.685,2.883,2.883,0,0,1-1.491.355A3.5,3.5,0,0,1,139.277,415.571Z"
                                fill="#fff"/>
                            <path
                                d="M167.39,409.182l1.775-4.828a3.5,3.5,0,0,1,3.265-2.342c-1.065,3.9-2.058,7.738-3.123,11.642A3.577,3.577,0,0,1,167.39,409.182Z"
                                fill="#fff"/>
                            <path
                                d="M155.25,436.23a3.557,3.557,0,0,1,4.544-2.13l3.478,1.278c-.639,2.272-1.348,4.544-1.987,6.815l-3.905-1.42A3.555,3.555,0,0,1,155.25,436.23Z"
                                fill="#fff"/>
                            <path
                                d="M141.336,468.673l-2.2-4.685a3.573,3.573,0,1,1,6.46-3.053l2.2,4.686a3.578,3.578,0,0,1-1.7,4.756,3.816,3.816,0,0,1-1.491.355A3.677,3.677,0,0,1,141.336,468.673Z"
                                fill="#fff"/>
                            <path
                                d="M120.819,391.008a3.577,3.577,0,0,1,1.7-4.756l4.685-2.2a3.573,3.573,0,1,1,3.053,6.46l-4.685,2.2a3.816,3.816,0,0,1-1.491.355A3.677,3.677,0,0,1,120.819,391.008Z"
                                fill="#fff"/>
                            <path
                                d="M111.306,367.013l-2.2-4.686a3.573,3.573,0,0,1,6.461-3.052l2.2,4.685a3.579,3.579,0,0,1-1.7,4.757,3.832,3.832,0,0,1-1.491.354A3.676,3.676,0,0,1,111.306,367.013Z"
                                fill="#fff"/>
                            <path
                                d="M122.949,444.181a3.577,3.577,0,0,1,1.7-4.756l4.685-2.2a3.573,3.573,0,1,1,3.053,6.46l-4.686,2.2a3.815,3.815,0,0,1-1.49.355A3.677,3.677,0,0,1,122.949,444.181Z"
                                fill="#fff"/>
                            <path
                                d="M113.436,420.186l-2.2-4.686a3.573,3.573,0,0,1,6.461-3.052l2.2,4.685a3.579,3.579,0,0,1-1.7,4.757,3.807,3.807,0,0,1-1.49.355A3.677,3.677,0,0,1,113.436,420.186Z"
                                fill="#fff"/>
                            <path
                                d="M96.966,456.747a3.5,3.5,0,0,1-2.13-4.544l1.775-4.827a3.548,3.548,0,0,1,6.673,2.413l-1.775,4.828a3.59,3.59,0,0,1-3.336,2.343A3.317,3.317,0,0,1,96.966,456.747Z"
                                fill="#fff"/>
                            <path
                                d="M194.864,285.869l2.13-.994c-.355,2.556-.781,5.111-1.207,7.667a3.6,3.6,0,0,1-2.627-1.988A3.477,3.477,0,0,1,194.864,285.869Z"
                                fill="#fff"/>
                            <path
                                d="M157.806,278.77l-4.9-1.775a3.548,3.548,0,1,1,2.413-6.673l4.9,1.774a3.55,3.55,0,0,1-1.207,6.887A3.606,3.606,0,0,1,157.806,278.77Z"
                                fill="#fff"/>
                            <path
                                d="M183.576,266.559l-2.2-4.685a3.573,3.573,0,0,1,6.461-3.053l2.2,4.685a3.579,3.579,0,0,1-1.7,4.757,3.816,3.816,0,0,1-1.491.355A3.677,3.677,0,0,1,183.576,266.559Z"
                                fill="#fff"/>
                            <path
                                d="M136.934,304.966l-2.2-4.757a3.525,3.525,0,1,1,6.389-2.981l2.2,4.756a3.5,3.5,0,0,1-1.7,4.686,2.892,2.892,0,0,1-1.491.354A3.5,3.5,0,0,1,136.934,304.966Z"
                                fill="#fff"/>
                            <path
                                d="M167.177,303.12a3.5,3.5,0,0,1-2.13-4.544l1.775-4.827a3.548,3.548,0,1,1,6.673,2.414l-1.775,4.827a3.59,3.59,0,0,1-3.336,2.343A3.317,3.317,0,0,1,167.177,303.12Z"
                                fill="#fff"/>
                            <path
                                d="M159.936,331.943l-4.9-1.775a3.548,3.548,0,0,1,2.414-6.673l4.9,1.774a3.549,3.549,0,0,1-1.206,6.887A3.606,3.606,0,0,1,159.936,331.943Z"
                                fill="#fff"/>
                            <path
                                d="M185.209,310.361a3.578,3.578,0,0,1,4.756,1.7l1.775,3.692h0l-.355,1.845c-.213,1.278-.5,2.485-.71,3.763-.071,0-.142.071-.213.071a3.816,3.816,0,0,1-1.491.355,3.654,3.654,0,0,1-3.194-2.059l-2.2-4.685A3.53,3.53,0,0,1,185.209,310.361Z"
                                fill="#fff"/>
                            <path
                                d="M138.993,358.068l-2.2-4.686a3.573,3.573,0,0,1,6.461-3.052l2.2,4.685a3.579,3.579,0,0,1-1.7,4.757,3.816,3.816,0,0,1-1.491.355A3.677,3.677,0,0,1,138.993,358.068Z"
                                fill="#fff"/>
                            <path
                                d="M169.236,356.293a3.557,3.557,0,0,1-2.13-4.544l1.775-4.9a3.548,3.548,0,1,1,6.673,2.414l-1.775,4.9a3.542,3.542,0,0,1-4.543,2.13Z"
                                fill="#fff"/>
                            <path
                                d="M124.085,273.8l.781-.355a3.573,3.573,0,0,1,3.052,6.461l-4.685,2.2a2.311,2.311,0,0,1-.994.284C122.878,279.622,123.517,276.782,124.085,273.8Z"
                                fill="#fff"/>
                            <path
                                d="M120.606,333.575a3.578,3.578,0,0,1,1.7-4.756l4.685-2.2a3.573,3.573,0,1,1,3.053,6.461l-4.685,2.2a3.816,3.816,0,0,1-1.491.355A3.677,3.677,0,0,1,120.606,333.575Z"
                                fill="#fff"/>
                            <path
                                d="M116.986,305.392l.568,1.136a3.58,3.58,0,0,1-1.7,4.756c-.071,0-.142.071-.213.071C116.063,309.509,116.56,307.521,116.986,305.392Z"
                                fill="#fff"/>
                            <path
                                d="M194.58,228.365l4.685-2.2a3.663,3.663,0,0,1,4.473,1.278l-.355,4.4a4.136,4.136,0,0,1-1.065.781l-4.686,2.2a3.823,3.823,0,0,1-1.49.354,3.5,3.5,0,0,1-3.195-2.058A3.613,3.613,0,0,1,194.58,228.365Z"
                                fill="#fff"/>
                            <path
                                d="M157.593,221.337l-4.9-1.775a3.548,3.548,0,1,1,2.413-6.673l4.9,1.775a3.549,3.549,0,0,1-1.207,6.886A3.606,3.606,0,0,1,157.593,221.337Z"
                                fill="#fff"/>
                            <path
                                d="M183.434,209.126l-2.2-4.756a3.526,3.526,0,0,1,6.39-2.982l2.2,4.757a3.5,3.5,0,0,1-1.7,4.685,2.883,2.883,0,0,1-1.491.355A3.5,3.5,0,0,1,183.434,209.126Z"
                                fill="#fff"/>
                            <path
                                d="M136.65,247.462l-2.2-4.685a3.573,3.573,0,1,1,6.46-3.053l2.2,4.685a3.58,3.58,0,0,1-1.7,4.757,3.816,3.816,0,0,1-1.491.355A3.677,3.677,0,0,1,136.65,247.462Z"
                                fill="#fff"/>
                            <path
                                d="M166.893,245.687a3.556,3.556,0,0,1-2.13-4.543l1.775-4.9a3.548,3.548,0,0,1,6.673,2.414l-1.775,4.9a3.543,3.543,0,0,1-4.543,2.129Z"
                                fill="#fff"/>
                        </g>
                        <path
                            d="M282.113,553.083l-38.691-9.726-51.114-.71.213,10.223a7.742,7.742,0,0,0,7.738,7.667l80.86.284A3.925,3.925,0,0,0,282.113,553.083Z"
                            fill="#2b2b2b"/>
                        <path
                            d="M160.007,553.012l-15.051-3.763-13.843-13.275L85.536,512.83l-4.33,9.3a7.85,7.85,0,0,0,3.62,10.294l57.149,28.326,17.038.071C163.627,560.892,164.479,554.219,160.007,553.012Z"
                            fill="#2b2b2b"/>
                        <path
                            d="M172.785,401.018A1.058,1.058,0,0,1,172,399.74c6.035-22.5,21.156-98.04,24.706-120.331a1.044,1.044,0,1,1,2.058.355c-3.549,22.291-18.671,97.9-24.705,120.473a.937.937,0,0,1-.994.781Z"
                            fill="#2b2b2b"/>
                        <path d="M173.338,122.446l26.905-9.207s-13.5-12.583-36.419-9.616Z" fill="#2b2b2b"/>
                        <path
                            d="M165.358,123.572l-28.542-8.594-.716-62.1,34.68-2.046,6.957,62.4a9.648,9.648,0,0,1-8.491,10.64A9.894,9.894,0,0,1,165.358,123.572Z"
                            fill="#ea7068"/>
                        <path
                            d="M180.294,85.413l-21.688,1.33a20.379,20.379,0,0,1-21.585-19.13l-1.944-32.737A32.627,32.627,0,0,1,165.767.4h0a32.627,32.627,0,0,1,34.476,30.691l1.739,30.077a23.123,23.123,0,0,1-21.688,24.245Z"
                            fill="#ea7068"/>
                        <path d="M191.241,40.094l4.91,5.217a2.566,2.566,0,0,1-.1,3.581l-.1.1-2.864,2.046" fill="none"
                              stroke="#2b2b2b" stroke-linecap="round" stroke-miterlimit="10" stroke-width="2.84"/>
                        <path d="M198.3,57.485c-1.432,9.719-10.127,10.639-13.4,0Z" fill="#fff"/>
                        <polygon points="174.668 85.72 160.55 86.641 176.202 99.735 174.668 85.72" fill="#2b2b2b"/>
                        <circle cx="180.397" cy="41.628" r="3.683" fill="#2b2b2b"/>
                        <path
                            d="M131.6,110.17C167,89.812,151.547,84.7,154.821,51.858c2.251-21.585,27.008-24.45,33.248-38.158,13.3,16.47,13.2,7.877,5.115-2.353-7.775-9.821-24.654-15.141-40-8.184s-26.394,33.145-26.6,51.867S131.6,110.17,131.6,110.17Z"
                            fill="url(#linear-gradient-7-i3)"/>
                        <path
                            d="M161.573,199.889a1.183,1.183,0,0,1-1.228-1.228l-.2-21.79a1.182,1.182,0,0,1,1.227-1.228h0a1.182,1.182,0,0,1,1.228,1.228l.2,21.79a1.183,1.183,0,0,1-1.228,1.228Z"
                            fill="#2b2b2b"/>
                        <path
                            d="M218.293,219.793a1.118,1.118,0,0,1-.512-.1,1.2,1.2,0,0,1-.613-1.637l5.217-11.867a1.236,1.236,0,1,1,2.251,1.023l-5.218,11.867A1.106,1.106,0,0,1,218.293,219.793Z"
                            fill="#2b2b2b"/>
                        <path
                            d="M223.51,198.514a1.181,1.181,0,0,1-1.227-1.227c0-.1,0-7.366-2.455-11.867a52.263,52.263,0,0,0-6.139-8.7,34.747,34.747,0,0,1-6.854-10.844,1.2,1.2,0,1,1,2.251-.818,34.664,34.664,0,0,0,6.547,10.127,49.152,49.152,0,0,1,6.445,9.105c2.762,5.013,2.762,12.686,2.762,12.993a1.411,1.411,0,0,1-1.33,1.227Z"
                            fill="#2b2b2b"/>
                        <path d="M136.816,107.1a111.366,111.366,0,0,0-18.21,12.276l18.21-4.5Z" fill="#2b2b2b"/>
                        <path d="M212.417,274.365l19.233,11.151a22.5,22.5,0,0,1-19.233,40.511l-16.471-6.24"
                              fill="#ea7068"/>
                        <path
                            d="M195.946,319.684l-84.194-31.816a27.54,27.54,0,0,1-17.8-27.621l.1-2.353,7.059-112.225a31.108,31.108,0,1,1,62.2,1.432c0,.819-.1,1.637-.1,2.455l-7.059,112.226-17.8-30.18,74.066,42.763"
                            fill="url(#linear-gradient-8-i3)"/>
                        <path
                            d="M157.174,243.776c-.205,0-.409-.1-.614-.1l-12.071-6.956a1.193,1.193,0,1,1,1.227-2.046l12.072,6.956a1.144,1.144,0,0,1-.614,2.148Z"
                            fill="#2b2b2b"/>
                        <path d="M200.986,43.932l-.416-7.193a3.666,3.666,0,0,0,.416,7.193Z" fill="#2b2b2b"/>
                    </g>
                </g>
            </g>
        </g>
    </g>

    <!-- ITEM 4 -->
    <g>
        <defs>
            <clipPath id="clip-path-id-viewbox-item-4">
                <rect x="0.0" y="0.0" width="641.841" height="583.529"/>
            </clipPath>
        </defs>
        <g transform="translate(163.0 165.0) rotate(0.0 588.5 536.0) scale(1.8337874956570241 1.8370980705329127)">
            <g clip-path="url(#clip-path-id-viewbox-item-4)" transform="translate(-0.0 -0.0)">
                <title>car</title>
                <g id="Layer_2-i4" data-name="Layer 2">
                    <g id="Layer_1-2-i4" data-name="Layer 1">
                        <rect x="37.442" y="581.279" width="550.179" height="2.251" fill="#2b2b2b"/>
                        <path
                            d="M478.261,515.4H163.581L80.716,523.99l16.061,26.7H138.21a30.523,30.523,0,0,1,18.414,6.24l4.706,3.58a30.091,30.091,0,0,0,18.414,6.241H462.1a30.522,30.522,0,0,0,18.414-6.241l4.706-3.58a30.1,30.1,0,0,1,18.415-6.24h41.432l16.061-26.7Z"
                            fill="#2b2b2b"/>
                        <path
                            d="M555.09,389.974h61.585A10.042,10.042,0,0,1,626.7,400V573.4a10.042,10.042,0,0,1-10.026,10.026H555.09A10.042,10.042,0,0,1,545.064,573.4V400.1A10.064,10.064,0,0,1,555.09,389.974Z"
                            fill="#2b2b2b"/>
                        <path
                            d="M86.752,583.529H25.166A10.041,10.041,0,0,1,15.141,573.5V400.1a10.041,10.041,0,0,1,10.025-10.025H86.752A10.041,10.041,0,0,1,96.777,400.1V573.5A10.108,10.108,0,0,1,86.752,583.529Z"
                            fill="#2b2b2b"/>
                        <path
                            d="M617.6,352.123,567.98,278.056H73.862L24.246,352.123a36.6,36.6,0,0,0-5.627,26.6l24.45,138.824a39.983,39.983,0,0,0,39.489,33.043H96.88v-14.22a10.369,10.369,0,0,1,10.332-10.332h69.975a58.3,58.3,0,0,1,21.585,4.194l26.6,10.64a31.757,31.757,0,0,0,11.867,2.25H404.706a33.064,33.064,0,0,0,11.867-2.25l26.6-10.64a57.521,57.521,0,0,1,21.586-4.194h69.974a10.37,10.37,0,0,1,10.333,10.332v14.22h14.322a40.242,40.242,0,0,0,39.489-33.043l24.45-138.824A36.555,36.555,0,0,0,617.6,352.123Z"
                            fill="#f9d5ff"/>
                        <path
                            d="M539.847,374.015c-.2,0-.41-.1-.614-.1a1.128,1.128,0,0,1-.409-1.535l32.838-55.242a23.128,23.128,0,0,0,2.046-19.233l-6.649-19.438a1.132,1.132,0,1,1,2.148-.716l6.65,19.438a24.99,24.99,0,0,1-2.149,21.074L540.87,373.5A1.42,1.42,0,0,1,539.847,374.015Z"
                            fill="#ea98e6"/>
                        <path
                            d="M102,374.015a1.075,1.075,0,0,1-.921-.511L68.338,318.261a24.991,24.991,0,0,1-2.149-21.074l6.65-19.438a1.132,1.132,0,0,1,2.148.716L68.338,297.9a22.717,22.717,0,0,0,2.046,19.232l32.736,55.243a1.156,1.156,0,0,1-.409,1.535A5.769,5.769,0,0,0,102,374.015Z"
                            fill="#ea98e6"/>
                        <path
                            d="M453.606,382.3h0a18.73,18.73,0,0,0,18.721,18.721h96.778A35.3,35.3,0,0,0,604.4,365.729H518.772A135.6,135.6,0,0,0,453.606,382.3Z"
                            fill="#fff"/>
                        <path
                            d="M630.384,245.422h-68.44l6.138,32.532h52.583a21.219,21.219,0,0,0,21.176-21.177h0A11.483,11.483,0,0,0,630.384,245.422Z"
                            fill="#ea98e6"/>
                        <path
                            d="M578.414,510.384h-71a34.707,34.707,0,0,1-33.76-26.6l-1.227-5.524h0l-5.013-21.279a14.026,14.026,0,0,0-13.709-10.844h82.865a32.715,32.715,0,0,1,31.713,24.655l1.944,7.468Z"
                            fill="#f9bbff"/>
                        <circle cx="493.299" cy="462.302" r="7.673" fill="#fff"/>
                        <path d="M578.414,510.384h-71a34.707,34.707,0,0,1-33.76-26.6l-1.227-5.524h97.8Z"
                              fill="#fdcf45"/>
                        <path
                            d="M320.921,446.138H246.343a13.557,13.557,0,0,0-13.5,13.5h0v19.54a13.557,13.557,0,0,0,13.5,13.5H395.4a13.49,13.49,0,0,0,13.5-13.5h0v-19.54a13.491,13.491,0,0,0-13.5-13.5H320.921Z"
                            fill="#fff"/>
                        <path
                            d="M188.235,382.3h0a18.73,18.73,0,0,1-18.721,18.721H72.737a35.3,35.3,0,0,1-35.295-35.294h85.525A136,136,0,0,1,188.235,382.3Z"
                            fill="#fff"/>
                        <path
                            d="M453.606,382.3a27.9,27.9,0,0,1-.716,6.547c-.1.716-.409,1.432-.614,2.251a28.378,28.378,0,0,1-7.366,12.071,26.638,26.638,0,0,1-2.557,2.251A29.955,29.955,0,0,1,436.624,409l-18.107,8.491-4.706,2.25-16.88,7.877a29.222,29.222,0,0,1-12.481,2.763H257.187a29.558,29.558,0,0,1-12.481-2.763l-16.88-7.877-4.706-2.25L205.013,409a25.639,25.639,0,0,1-5.729-3.581,26.771,26.771,0,0,1-2.558-2.251,30.1,30.1,0,0,1-7.365-12.071c-.2-.716-.41-1.432-.614-2.251a28.5,28.5,0,0,1-.716-6.547l17.7-5.525,7.161-2.25,20.051-6.241a60.493,60.493,0,0,1,17.494-2.659H391a59.451,59.451,0,0,1,17.494,2.659l20.051,6.241,7.161,2.25Z"
                            fill="#2b2b2b"/>
                        <path
                            d="M11.458,245.422H79.9L73.76,278.056H21.176A21.219,21.219,0,0,1,0,256.88H0A11.571,11.571,0,0,1,11.458,245.422Z"
                            fill="#ea98e6"/>
                        <path
                            d="M63.427,510.384h71a34.707,34.707,0,0,0,33.759-26.6l1.33-5.524h0l5.013-21.279a14.026,14.026,0,0,1,13.708-10.844H105.371a32.717,32.717,0,0,0-31.714,24.655l-1.943,7.468Z"
                            fill="#f9bbff"/>
                        <circle cx="148.542" cy="462.302" r="7.673" fill="#fff"/>
                        <path d="M63.427,510.384h71a34.707,34.707,0,0,0,33.759-26.6l1.33-5.524h-97.9Z" fill="#fdcf45"/>
                        <path
                            d="M566.854,278.261l-44.4-235.5C515.5,12.992,484.6,2.353,458.005,2.353H183.836c-24.245,0-55.652,10.537-64.45,40.409l-44.4,235.4-2.148-.41,44.4-235.5v-.1C126.445,11.049,158.875,0,183.836,0H458.005c15.345,0,29.872,3.376,41.228,9.616,13.4,7.366,22.2,18.619,25.473,32.532l44.4,235.5Z"
                            fill="#4171ff"/>
                        <path
                            d="M546.292,269.872A384.059,384.059,0,0,0,411.458,245.32H230.281A381.764,381.764,0,0,0,95.448,269.872L73.76,278.056H567.98Z"
                            fill="#deb8ff"/>
                        <polygon
                            points="435.908 376.777 205.934 376.777 213.095 374.629 428.747 374.629 435.908 376.777"
                            fill="#ea98e6"/>
                        <path d="M452.788,388.849c-.1.716-.409,1.432-.614,2.251H189.565c-.2-.716-.409-1.432-.614-2.251Z"
                              fill="#ea98e6"/>
                        <path d="M444.91,403.274a26.766,26.766,0,0,1-2.557,2.25H199.386a26.766,26.766,0,0,1-2.557-2.25Z"
                              fill="#ea98e6"/>
                        <polygon
                            points="418.517 417.494 413.811 419.744 228.031 419.744 223.325 417.494 418.517 417.494"
                            fill="#ea98e6"/>
                        <path
                            d="M340.563,36.829h-57.9a5.805,5.805,0,0,1-5.627-4.911l-.92-7.059a5.2,5.2,0,0,1,1.125-4.194,5.644,5.644,0,0,1,3.785-2.251,2.254,2.254,0,0,0,.818-.1h59.847a5.341,5.341,0,0,1,3.99,1.739,5.684,5.684,0,0,1,1.739,3.99,2.257,2.257,0,0,1-.1.818l-.921,7.059A6.02,6.02,0,0,1,340.563,36.829ZM281.739,20.563h-.409a3.227,3.227,0,0,0-2.251,1.33,3.3,3.3,0,0,0-.716,2.557l.921,7.059a3.527,3.527,0,0,0,3.478,3.069h57.9a3.527,3.527,0,0,0,3.478-3.069l.921-7.059v-.409a3.773,3.773,0,0,0-1.023-2.455,3.326,3.326,0,0,0-2.455-1.023H281.739Z"
                            fill="#4171ff"/>
                        <rect x="310.588" y="1.228" width="2.251" height="18.107" fill="#4171ff"/>
                    </g>
                </g>
            </g>
        </g>
    </g>

</svg>
