<?xml version="1.0" encoding="UTF-8"?><svg xmlns="http://www.w3.org/2000/svg" viewBox="0 0 1949.39 313.52"><defs><style>.cls-1{mix-blend-mode:multiply;}.cls-1,.cls-2{fill:#5e6fa8;}.cls-3{isolation:isolate;}.cls-4{fill:#363f72;}</style></defs><g class="cls-3"><g id="Calque_2"><g id="Calque_1-2"><g><path class="cls-2" d="M83.43,141.48c0,48.82,39.58,88.4,88.4,88.4v53.08c-78.14,0-141.48-63.34-141.48-141.48S93.69,0,171.83,0V53.08c-48.82,0-88.4,39.58-88.4,88.4Z"/><path class="cls-1" d="M166.67,250.98c-57.51,0-104.14-46.62-104.14-104.14H0c0,92.05,74.62,166.67,166.67,166.67s166.67-74.62,166.67-166.67h-62.54c0,57.51-46.62,104.14-104.14,104.14Z"/></g><g><path class="cls-2" d="M538.65,237.81c-14.39,12.95-32.63,19.41-54.72,19.41s-40.32-6.47-54.71-19.41c-14.39-12.94-21.59-31.09-21.59-54.44V60.37h42.9v119.47c0,11.41,2.94,20.1,8.82,26.07,5.88,5.97,14.07,8.96,24.57,8.96s18.69-2.99,24.57-8.96c5.88-5.97,8.82-14.66,8.82-26.07V60.37h42.9v123c0,23.35-7.2,41.5-21.59,54.44Z"/><path class="cls-2" d="M767.68,252.88h-45.35l-79.29-126.53v126.53h-42.63V60.37h52.13l72.23,117.03V60.37h42.9V252.88Z"/><path class="cls-2" d="M852.67,252.88h-43.45V60.37h43.45V252.88Z"/><path class="cls-4" d="M983,256.95c-28.24,0-51.96-9.28-71.14-27.83-19.19-18.55-28.78-42.58-28.78-72.09s9.68-53.45,29.05-72.36c19.37-18.92,42.81-28.38,70.33-28.38,13.75,0,26.2,2.04,37.34,6.11,11.13,4.07,20.14,9.46,27.02,16.15,6.88,6.7,12.4,13.58,16.56,20.64,4.16,7.06,7.06,14.39,8.69,21.99l-40.46,12.76c-.91-3.8-2.36-7.56-4.34-11.27-2-3.71-4.8-7.51-8.42-11.41-3.62-3.89-8.6-7.06-14.93-9.5-6.34-2.44-13.49-3.67-21.45-3.67-14.48,0-27.25,5.12-38.29,15.34-11.05,10.23-16.56,24.76-16.56,43.58,0,17.38,5.43,31.23,16.29,41.55,10.86,10.32,23.9,15.47,39.1,15.47s26.34-3.71,34.48-11.13c8.15-7.42,13.48-15.75,16.02-24.98l41,11.68c-1.81,7.42-4.75,14.75-8.82,21.99-4.08,7.24-9.6,14.39-16.56,21.45-6.97,7.06-16.2,12.81-27.7,17.24-11.5,4.43-24.3,6.65-38.42,6.65Z"/><path class="cls-4" d="M1091.07,156.76c0-29.87,9.73-54.08,29.19-72.64,19.46-18.55,43.13-27.83,71.01-27.83s51.5,9.33,70.87,27.97c19.37,18.65,29.05,42.81,29.05,72.5s-9.69,53.81-29.05,72.36c-19.37,18.56-42.99,27.83-70.87,27.83s-51.55-9.28-71.01-27.83c-19.46-18.55-29.19-42.67-29.19-72.36Zm61.23-43.58c-11.13,10.05-16.7,24.48-16.7,43.31s5.57,33.22,16.7,43.17c11.13,9.96,24.12,14.93,38.96,14.93s27.79-4.98,38.83-14.93c11.04-9.95,16.56-24.35,16.56-43.17s-5.52-33.26-16.56-43.31c-11.04-10.05-23.99-15.07-38.83-15.07s-27.83,5.02-38.96,15.07Z"/><path class="cls-4" d="M1390.58,195.86l45.89-135.5h45.62l-70.33,192.52h-44.26l-70.6-192.52h47.25l46.43,135.5Z"/><path class="cls-4" d="M1487.79,156.76c0-29.87,9.73-54.08,29.19-72.64,19.46-18.55,43.13-27.83,71.01-27.83s51.5,9.33,70.87,27.97c19.37,18.65,29.05,42.81,29.05,72.5s-9.69,53.81-29.05,72.36c-19.37,18.56-42.99,27.83-70.87,27.83s-51.55-9.28-71.01-27.83c-19.46-18.55-29.19-42.67-29.19-72.36Zm61.23-43.58c-11.13,10.05-16.7,24.48-16.7,43.31s5.57,33.22,16.7,43.17c11.13,9.96,24.12,14.93,38.96,14.93s27.79-4.98,38.83-14.93c11.04-9.95,16.56-24.35,16.56-43.17s-5.52-33.26-16.56-43.31c-11.04-10.05-23.99-15.07-38.83-15.07s-27.83,5.02-38.96,15.07Z"/><path class="cls-4" d="M1762.03,252.88h-43.45V60.37h43.45V252.88Z"/><path class="cls-4" d="M1949.39,101.37h-59.47V252.88h-42.9V101.37h-59.19V60.37h161.56v41Z"/></g></g></g></g></svg>