<svg enable-background="new 0 0 227.124 156.256" height="157" viewBox="0 0 227.124 156.256" width="228"
     xmlns="http://www.w3.org/2000/svg">
    <path
        d="m227.124 4.117v78.023c0 2.274-1.842 4.117-4.117 4.117h-218.89c-2.275-.001-4.117-1.843-4.117-4.117v-78.023c0-2.275 1.842-4.117 4.117-4.117h218.891c2.274 0 4.116 1.842 4.116 4.117z"
        fill="#8bd2ff"/>
    <path
        d="m89.135 63.097c-6.525 11.3-13.235 19.647-18.35 25.173h-.01c-1.307 1.431-2.511 2.655-3.581 3.715-3.19 3.129-5.177 4.662-5.177 4.662l-62.017-19.8v-33.633c5.497-4.049 9.99-7.363 13.288-9.862.872-.661 2.079-.636 2.915.07 6.446 5.44 16.935 14.854 21.918 17.594 5.372 2.954 11.547-2.624 14.768-2.892 2.624-.216 15.561 8.357 27.993 12.762 2.819 1.007 5.608 1.79 8.253 2.211z"
        fill="#3E2723"/>
    <path
        d="m227.124 7.863v20.058h-122.953c9.396 0 12.885-6.978 20.13-6.978 4.107 0 14.882 3.129 21.746-1.616 4.724-3.262 9.16-4.477 13.297-4.353 3.859.103 7.472 1.359 10.837 3.17 6.978 3.756 18.72.165 29.156-4.446 9.53-4.209 17.681-6.69 27.787-5.835z"
        fill="#eeeeee"/>
    <path
        d="m138.802 66.586c-3.756 17.99-15.036 36.782-15.036 36.782l-88.065-17.722c5.105-6.443 15.52-19.688 18.257-23.094 8.12-3.149 12.617 1.883 19.605 1.348 3.787-.288 8.038-3.19 12.514-7.05 3.231-2.768 12.072-7.785 24.144-.422.02.012.041.021.062.031 2.017.947 4.168 1.369 6.515.926 6.361-1.204 13.143 10.807 22.004 9.201z"
        fill="#5D4037"/>
    <path d="m129.282 63.838-22.834 26.874 11.779 3.725z" fill="#4E342E"/>
    <path
        d="m227.124 55.091v48c-19.811.957-66.885 2.408-101.403-3.18-5.928-.957-11.475-2.12-16.456-3.53l4.353-7.07 15.664-25.472 13.667-22.209c17.771-13.093 34.736-13.354 50.799.772.762 1.42 1.904 2.604 3.293 3.417l7.986 4.652c1.832 1.07 3.839 1.78 5.928 2.11z"
        fill="#6D4C41"/>
    <path d="m125.778 97.726 9.397-17.451 13.155-9.665 6.98-16.511-5.235 19.599-12.081 9.128-5.101 16.243z"
          fill="#4E342E"/>
    <path d="m164.036 72.221 1.477 9.128 12.618 3.759 3.356 13.558h6.309l-5.907-16.511-13.96-2.819z" fill="#4E342E"/>
    <path
        d="m172.627 60.274 1.611 5.772 17.317 6.175 3.892 8.591 13.156 3.759 7.114 15.303h6.846l-10.47-19.33-13.961-2.416-4.161-8.726-17.719-5.101z"
        fill="#4E342E"/>
    <path
        d="m227.124 98.274v53.866c0 2.274-1.842 4.117-4.117 4.117h-218.89c-2.274 0-4.117-1.842-4.117-4.117v-83.681c9.695-1.204 24.916 2.038 41.022 10.456 1.461.762 2.933 1.575 4.415 2.429 8.027 4.631 16.93 6.453 25.338 6.926h.01c13.091.762 24.998-1.688 30.628-1.688 3.375 0 7.43 1.163 12.206 2.727 4.425 1.441 9.468 3.232 15.139 4.745 8.995 2.418 19.585 4.158 31.853 2.799 21.94-2.438 41.741 1.884 66.513 1.421z"
        fill="#43A047"/>
    <path
        d="m0 108.465c15.102-6.846 36.958-1.363 49.129 8.188 10.605 8.323 25.908 8.86 38.123 6.578 10.003-1.869 28.66-6.511 39.332 4.161-33.224 15.505-126.584 20.405-126.584 20.405z"
        fill="#2E7D32"/>
    <path
        d="m0 152.14v-8.48c19.731-15.327 39.195-16.401 71.608-13.585 24.197 2.102 47.081-8.308 60.813-9.376 15.775-1.226 36.103 3.757 50.542 2.326 12.504-1.225 25.153-10.312 44.161-8.799v37.914c0 2.274-1.842 4.117-4.117 4.117h-218.89c-2.275-.001-4.117-1.843-4.117-4.117z"
        fill="#039BE5"/>
    <g>
        <circle cx="67.855" cy="25.155" r="10.269" fill="#d2f1ff"/>
        <path
            d="m46.61 16.96h-46.61v-8.161c2.501.329 4.847 1.173 7.451 2.316 4.291 1.894 9.128 3.376 12 1.832 2.871-1.554 6.175-2.11 9.931.484 2.82 1.955 7.256.659 8.944.659 2.984-.001 4.415 2.87 8.284 2.87z" fill="#eeeeee"/>
        <path fill="#ffffff"
            d="m193.748 42.401c-5.279-3.736-14.079-5.681-12.803-.515 1.873 7.575-12.484 12.885-20.665 4.158-2.604-2.768-10.477-8.46-17.187-4.292l-.144-.123 8.429-13.708 7.966-12.947 2.264-3.684c.999-1.605 3.335-1.616 4.323-.01l4.25 6.865 6.052 9.777.319.525c.751 1.214 1.935 2.11 3.314 2.511l6.185 1.76c1.894.535 3.479 1.822 4.405 3.551z"/>
        <path fill="#ffffff"
            d="m110.222 56.428c-3.9-2.007-8.966-2.363-12.134 1.667-3.578 4.552-10.837 2.717-12-1.235l-.01-.01c3.231-2.768 6.587-6.031 9.942-9.17.968-.906 2.48-.916 3.458-.021 3.54 3.253 6.926 6.948 10.744 8.769z" />
    </g>
    <path d="m199.743 54.904 12.753 9.857 14.628 1.956v-4.832l-13.69-.671z" fill="#4E342E"/>
</svg>
