<?xml version="1.0" encoding="UTF-8"?>
<svg version="1.1" xmlns="http://www.w3.org/2000/svg" viewBox="0 0 1500 1500" width="1500" height="1500" x="0px"
     y="0px">


    <!-- ITEM 0 -->
    <g>
        <defs>
            <clipPath id="clip-path-id-viewbox-item-0">
                <rect x="0.0" y="0.0" width="706.305" height="600.0"/>
            </clipPath>
        </defs>
        <g transform="translate(104.0 140.0) rotate(0.0 646.0 550.0) scale(1.829238077034709 1.8333333333333333)">
            <g clip-path="url(#clip-path-id-viewbox-item-0)" transform="translate(-0.0 -0.0)">
                <title>background_27</title>
                <g id="Layer_2-i0" data-name="Layer 2">
                    <g id="Layer_1-2-i0" data-name="Layer 1">
                        <path
                            d="M91.277,514.2a4.662,4.662,0,0,1-6.144,2.369,80.054,80.054,0,0,0-82.246,9.92A4.674,4.674,0,0,1,0,527.452V517.014a89.281,89.281,0,0,1,88.982-8.957A4.607,4.607,0,0,1,91.277,514.2Z"
                            fill="#f9d5ff"/>
                        <circle cx="644.491" cy="205.429" r="3.035" fill="#bfd9ff"/>
                        <path
                            d="M661.147,600a2.97,2.97,0,0,1-2.961-2.961V506.5a2.962,2.962,0,0,1,5.923,0v90.537A2.971,2.971,0,0,1,661.147,600Z"
                            fill="#f9d5ff"/>
                        <path
                            d="M661.147,537a1.445,1.445,0,0,1-.518-.074,3,3,0,0,1-2.443-3.4,20.955,20.955,0,0,1,22.431-17.545,3.028,3.028,0,0,1,2.739,3.183,2.975,2.975,0,0,1-3.183,2.739,15.031,15.031,0,0,0-16.064,12.659A3.079,3.079,0,0,1,661.147,537Z"
                            fill="#f9d5ff"/>
                        <path
                            d="M661.147,537a2.938,2.938,0,0,1-2.887-2.443A15.078,15.078,0,0,0,642.2,521.9a2.969,2.969,0,0,1-.444-5.922,20.955,20.955,0,0,1,22.431,17.545,2.941,2.941,0,0,1-2.443,3.4A2.085,2.085,0,0,1,661.147,537Z"
                            fill="#f9d5ff"/>
                        <path
                            d="M661.147,558.248a1.445,1.445,0,0,1-.518-.074,3,3,0,0,1-2.443-3.4,20.957,20.957,0,0,1,22.431-17.545,3.028,3.028,0,0,1,2.739,3.183,2.975,2.975,0,0,1-3.183,2.739A15.031,15.031,0,0,0,664.109,555.8,3.078,3.078,0,0,1,661.147,558.248Z"
                            fill="#f9d5ff"/>
                        <path
                            d="M661.147,558.248a2.937,2.937,0,0,1-2.887-2.443A15.078,15.078,0,0,0,642.2,543.146a2.969,2.969,0,0,1-.444-5.922,20.957,20.957,0,0,1,22.431,17.545,2.941,2.941,0,0,1-2.443,3.4A2.085,2.085,0,0,1,661.147,558.248Z"
                            fill="#f9d5ff"/>
                        <path
                            d="M661.147,579.568a1.445,1.445,0,0,1-.518-.074,3,3,0,0,1-2.443-3.4,20.957,20.957,0,0,1,22.431-17.545,3.028,3.028,0,0,1,2.739,3.183,2.975,2.975,0,0,1-3.183,2.739,15.031,15.031,0,0,0-16.064,12.659A3.078,3.078,0,0,1,661.147,579.568Z"
                            fill="#f9d5ff"/>
                        <path
                            d="M661.147,579.568a2.937,2.937,0,0,1-2.887-2.443A15.078,15.078,0,0,0,642.2,564.466a2.969,2.969,0,0,1-.444-5.922,20.957,20.957,0,0,1,22.431,17.545,2.94,2.94,0,0,1-2.443,3.4A2.085,2.085,0,0,1,661.147,579.568Z"
                            fill="#f9d5ff"/>
                        <path
                            d="M134.065,599.408a2.97,2.97,0,0,1-2.961-2.961V534.041a2.962,2.962,0,0,1,5.923,0v62.406A2.971,2.971,0,0,1,134.065,599.408Z"
                            fill="#f9d5ff"/>
                        <path
                            d="M134.065,565.651a1.445,1.445,0,0,1-.518-.074,3,3,0,0,1-2.443-3.4,20.955,20.955,0,0,1,22.431-17.545,3.028,3.028,0,0,1,2.739,3.183,2.975,2.975,0,0,1-3.183,2.739,15.031,15.031,0,0,0-16.064,12.659A3.079,3.079,0,0,1,134.065,565.651Z"
                            fill="#f9d5ff"/>
                        <path
                            d="M134.065,565.651a2.938,2.938,0,0,1-2.887-2.443,15.078,15.078,0,0,0-16.064-12.659,2.969,2.969,0,0,1-.444-5.922A20.955,20.955,0,0,1,137.1,562.172a2.941,2.941,0,0,1-2.443,3.4A2.089,2.089,0,0,1,134.065,565.651Z"
                            fill="#f9d5ff"/>
                        <path
                            d="M134.065,586.971a1.445,1.445,0,0,1-.518-.074,3,3,0,0,1-2.443-3.405,20.957,20.957,0,0,1,22.431-17.545,3.029,3.029,0,0,1,2.739,3.183,2.975,2.975,0,0,1-3.183,2.739,15.031,15.031,0,0,0-16.064,12.659A3.078,3.078,0,0,1,134.065,586.971Z"
                            fill="#f9d5ff"/>
                        <path
                            d="M134.065,586.971a2.937,2.937,0,0,1-2.887-2.443,15.078,15.078,0,0,0-16.064-12.659,2.969,2.969,0,0,1-.444-5.922A20.957,20.957,0,0,1,137.1,583.492a2.941,2.941,0,0,1-2.443,3.405A2.089,2.089,0,0,1,134.065,586.971Z"
                            fill="#f9d5ff"/>
                        <path
                            d="M67.588,599.408a2.97,2.97,0,0,1-2.961-2.961V551.733a2.961,2.961,0,0,1,5.922,0v44.714A2.97,2.97,0,0,1,67.588,599.408Z"
                            fill="#f9d5ff"/>
                        <path
                            d="M67.588,586.971a1.445,1.445,0,0,1-.518-.074,3,3,0,0,1-2.443-3.405,20.955,20.955,0,0,1,22.43-17.545A3.028,3.028,0,0,1,89.8,569.13a2.975,2.975,0,0,1-3.183,2.739,15.031,15.031,0,0,0-16.064,12.659A3.077,3.077,0,0,1,67.588,586.971Z"
                            fill="#f9d5ff"/>
                        <path
                            d="M67.588,586.971a2.937,2.937,0,0,1-2.887-2.443,15.079,15.079,0,0,0-16.064-12.659,2.969,2.969,0,1,1-.445-5.922,20.956,20.956,0,0,1,22.431,17.545A2.94,2.94,0,0,1,68.18,586.9,2.083,2.083,0,0,1,67.588,586.971Z"
                            fill="#f9d5ff"/>
                        <circle cx="34.127" cy="489.92" r="3.035" fill="#bfd9ff"/>
                        <circle cx="94.904" cy="169.377" r="3.035" fill="#bfd9ff"/>
                        <circle cx="571.943" cy="87.872" r="3.035" fill="#bfd9ff"/>
                        <circle cx="584.824" cy="467.933" r="2.813" fill="#bfd9ff"/>
                    </g>
                </g>
            </g>
        </g>
    </g>

    <!-- ITEM 1 -->
    <g>
        <defs>
            <clipPath id="clip-path-id-viewbox-item-1">
                <rect x="0.0" y="0.0" width="916.9" height="453.2"/>
            </clipPath>
        </defs>
        <g transform="translate(136.0 387.0) rotate(0.0 622.0 307.5) scale(1.356745555676737 1.357016769638129)">
            <g clip-path="url(#clip-path-id-viewbox-item-1)" transform="translate(-0.0 -0.0)">
                <title>cloud_4</title>
                <g id="Layer_2-i1" data-name="Layer 2">
                    <g id="Layer_1-2-i1" data-name="Layer 1">
                        <path
                            d="M741.4,100.3q-7.8,0-15.6.6C686.5,104,648,90.5,620.3,65.5,580,29,523.9,6.4,462,6.4c-51.9,0-99.6,15.8-137.4,42.4-28.5,20-65.2,28.3-100.9,23.1a217.532,217.532,0,0,0-30.4-2.2C89.8,69.7,6.5,143.9,6.4,236.2c0,2.3.1,4.6.2,6.9-.1,2.3-.2,4.7-.2,7.1,0,108.6,109.7,196.6,231.5,196.6,36.2,0,65.1-6.2,87.2-13.9a182.233,182.233,0,0,1,113.8-2.2A238.964,238.964,0,0,0,609,419.5a178.951,178.951,0,0,1,76-16.6h54.2c93.5,0,171.4-68.2,171.3-151.5C910.4,167.9,835,100.6,741.4,100.3Z"
                            fill="#fff"/>
                        <path
                            d="M237.9,453.2c-60.2,0-120.5-21.5-165.5-59.1C25.7,355.2,0,304,0,250.2c0-2.4.1-4.6.2-7.1-.1-2.2-.2-4.6-.2-6.9.1-46.5,20.2-90.1,56.8-122.6,36.4-32.4,84.9-50.3,136.5-50.3a225.212,225.212,0,0,1,31.3,2.3c34.2,5,69.3-3,96.3-22C361.4,15.1,410.2,0,462,0c61.6,0,119.3,21.6,162.6,60.8,27,24.4,63.7,36.7,100.7,33.8,5.4-.4,10.8-.6,16.1-.6h0c46.8.2,90.8,16.5,123.9,46,33.2,29.7,51.6,69.3,51.6,111.5,0,38.3-15.9,75.4-44.8,104.4-34,34-82.4,53.5-132.9,53.5H685a172.868,172.868,0,0,0-73.3,16,239.773,239.773,0,0,1-102.3,22.4A243.241,243.241,0,0,1,437,436.9,176.218,176.218,0,0,0,327.2,439C300.1,448.4,270,453.2,237.9,453.2ZM193.3,76.1c-48.5,0-93.9,16.7-128,47-33.8,30.1-52.5,70.3-52.5,113.1,0,2.2.1,4.3.2,6.6v.6c-.1,2.4-.2,4.6-.2,6.8,0,50,24.1,97.6,67.8,134.1,42.7,35.6,100.1,56.1,157.3,56.1,30.7,0,59.3-4.6,85.1-13.5a189.07,189.07,0,0,1,117.8-2.3,231.2,231.2,0,0,0,68.6,10.3,227.248,227.248,0,0,0,96.9-21.2A186.9,186.9,0,0,1,685,396.5h54.2c47.1,0,92.2-18.1,123.8-49.8,26.5-26.6,41.1-60.4,41.1-95.3,0-38.5-16.9-74.7-47.3-102-30.7-27.4-71.7-42.6-115.4-42.7-5,0-10.1.2-15.1.6-40.5,3.2-80.7-10.3-110.3-37-40.9-37-95.6-57.4-154-57.4-49.1,0-95.4,14.3-133.7,41.2-29.7,20.8-68.1,29.6-105.5,24.2A200.2,200.2,0,0,0,193.3,76.1Z"
                            fill="#f9d5ff"/>
                        <path
                            d="M470.5,345.3a6.33,6.33,0,0,1-5.3-2.8c-48.9-74.8-107.7-82.3-138.4-80.2A139.3,139.3,0,0,0,271.7,278a6.285,6.285,0,0,1-5.9-11.1,151.784,151.784,0,0,1,60.1-17.1,144.7,144.7,0,0,1,78.6,17.3c27.1,14.6,51.1,37.7,71.3,68.5a6.285,6.285,0,0,1-1.8,8.7A6.434,6.434,0,0,1,470.5,345.3Z"
                            fill="#f9d5ff"/>
                        <path
                            d="M612.7,175.4a6.3,6.3,0,0,1-4.3-10.9,120.564,120.564,0,0,1,122.4-25.4,6.263,6.263,0,0,1-4.2,11.8A107.831,107.831,0,0,0,617,173.7,6.5,6.5,0,0,1,612.7,175.4Z"
                            fill="#f9d5ff"/>
                        <path
                            d="M196.1,299.7a6.3,6.3,0,0,1-4.3-10.9c32.5-30.1,67-32.6,108.6-7.8a6.277,6.277,0,0,1-6.4,10.8c-37.1-22.1-65.1-20.2-93.6,6.2A6.5,6.5,0,0,1,196.1,299.7Z"
                            fill="#f9d5ff"/>
                    </g>
                </g>
            </g>
        </g>
    </g>

    <!-- ITEM 2 -->
    <g>
        <defs>
            <clipPath id="clip-path-id-viewbox-item-2">
                <rect x="0.0" y="0.0" width="46.912" height="76.714"/>
            </clipPath>
        </defs>
        <g transform="translate(890.0 345.0) rotate(0.0 43.0 70.5) scale(1.8332196452933152 1.8379956722371407)">
            <g clip-path="url(#clip-path-id-viewbox-item-2)" transform="translate(-0.0 -0.0)">
                <title>smartphone_1</title>
                <g id="Layer_2-i2" data-name="Layer 2">
                    <g id="Layer_1-2-i2" data-name="Layer 1">
                        <path
                            d="M22.456,76.5,4.542,71.537A6.124,6.124,0,0,1,.248,63.912L16.83,4.542A6.125,6.125,0,0,1,24.455.248L42.37,5.208a6.125,6.125,0,0,1,4.294,7.625L30.081,72.2A6.206,6.206,0,0,1,22.456,76.5Z"
                            fill="#cacdf5"/>
                        <ellipse cx="30.744" cy="26.581" rx="7.625" ry="5.626"
                                 transform="translate(-3.083 49.108) rotate(-74.509)" fill="#b3b7f1"/>
                    </g>
                </g>
            </g>
        </g>
    </g>

    <!-- ITEM 3 -->
    <g>
        <defs>
            <clipPath id="clip-path-id-crop-item-3">

                <g transform="scale(0.75 0.75)">
                    <rect x="0.0" y="0.0" width="60.0" height="34.0"/>
                </g>

            </clipPath>

            <clipPath id="clip-path-id-viewbox-item-3">
                <rect x="0.0" y="0.0" width="45.0" height="45.0"/>
            </clipPath>
        </defs>
        <g clip-path="url(#clip-path-id-crop-item-3)"
           transform="translate(904.0 460.0) rotate(0.0 30.0 30.0) scale(1.3333333333333333 1.3333333333333333)">
            <g clip-path="url(#clip-path-id-viewbox-item-3)" transform="translate(-0.0 -0.0)">
                <title>Asset 109</title>
                <g id="Layer_2-i3" data-name="Layer 2">
                    <g id="Layer_1-2-i3" data-name="Layer 1">
                        <circle cx="22.5" cy="22.5" r="22.5" fill="#fdc068"/>
                    </g>
                </g>
            </g>
        </g>
    </g>

    <!-- ITEM 4 -->
    <g>
        <defs>
            <clipPath id="clip-path-id-viewbox-item-4">
                <rect x="0.0" y="0.0" width="553.527" height="567.708"/>
            </clipPath>
        </defs>
        <g transform="translate(227.0 173.0) rotate(0.0 509.0 521.0) scale(1.8391153457735574 1.83545061898018)">
            <g clip-path="url(#clip-path-id-viewbox-item-4)" transform="translate(-0.0 -0.0)">

                <g>
                    <path fill="#91AFEC"
                          d="M272.686,91.197c-74.991,37.828-77.804-11.326-136.878-2.591c-30.87,4.59,40.79-41.9,40.79-41.9   l59.001-11.919l39.531,3.257L272.686,91.197z"/>

                    <linearGradient id="SVGID_7_-i4" gradientUnits="userSpaceOnUse" x1="80.1599" y1="-1230.8483"
                                    x2="80.1599" y2="-1378.1648" gradientTransform="matrix(1 0 0 1 242.4 1511.04)">
                        <stop offset="0" style="stop-color:#FFE0C2"/>
                        <stop offset="0.401" style="stop-color:#7AAEFC"/>
                        <stop offset="0.5908" style="stop-color:#B8C1FC"/>
                        <stop offset="1" style="stop-color:#D2D4D4"/>
                    </linearGradient>
                    <path fill="url(#SVGID_7_-i4)"
                          d="M397.276,197.428l-37.977,65.885c-5.182,16.138-22.431,25.022-38.569,19.914   c-7.255-2.295-13.029-7.107-16.804-13.103l-1.703-2.739l-49.599-95.571c-9.328-15.176-4.59-35.015,10.586-44.343   s35.015-4.59,44.343,10.586l49.599,95.571l-57.002,3.998l56.336-67.588"/>
                    <path fill="#FDC068"
                          d="M356.56,170.112l9.328-10.512c8.513-9.624,23.245-10.512,32.943-1.999   c8.439,7.477,10.142,19.692,4.738,29.093l-6.218,10.734L356.56,170.112z"/>
                    <g>
                        <g>
                            <path fill="#4C7DE0"
                                  d="M545.481,534.923l-80.173-18.655c-6.07-3.627-7.329-5.7-11.104-13.695l-4.516-8.513l68.92,10.512     l33.091,22.431C556.437,530.926,551.107,537.662,545.481,534.923z"/>
                        </g>
                    </g>

                    <linearGradient id="SVGID_18_-i4" gradientUnits="userSpaceOnUse" x1="127.5595" y1="-1272.3435"
                                    x2="127.5595" y2="-1018.1888" gradientTransform="matrix(1 0 0 1 242.4 1511.04)">
                        <stop offset="0" style="stop-color:#9774AC"/>
                        <stop offset="0.401" style="stop-color:#47A6D3"/>
                        <stop offset="0.5011" style="stop-color:#A7A7AE"/>
                        <stop offset="0.5908" style="stop-color:#E89AC0"/>
                        <stop offset="1" style="stop-color:#BFE7D1"/>
                    </linearGradient>
                    <path fill="url(#SVGID_18_-i4)"
                          d="M456.647,297.366c19.099,66.7,57.002,198.47,61.962,207.205l-68.92-10.438l-72.326-185.589   L221.31,258.131l90.685-28.427l94.83,21.468C430.811,256.133,449.91,273.899,456.647,297.366z"/>

                    <linearGradient id="SVGID_34_-i4" gradientUnits="userSpaceOnUse" x1="-17.2869" y1="-2386.8772"
                                    x2="-17.2869" y2="-2529.135"
                                    gradientTransform="matrix(0.9352 0.1821 -0.1578 0.9821 -113.3417 2617.7637)">
                        <stop offset="0" style="stop-color:#FFE0C2"/>
                        <stop offset="0.401" style="stop-color:#7AAEFC"/>
                        <stop offset="0.5908" style="stop-color:#B8C1FC"/>
                        <stop offset="1" style="stop-color:#D2D4D4"/>
                    </linearGradient>
                    <path fill="url(#SVGID_34_-i4)"
                          d="M311.921,231.629c2.443-32.424-18.877-33.091-9.031-54.041c9.772-20.95,2.739-52.486-20.95-54.855   c-18.285-1.851-19.469-2.739-27.168-3.553c-24.355-2.443-48.267,17.397-43.159,42.566c0,0,6.589,10.216,5.922,17.545   c-0.666,7.329-18.655,16.434-20.358,38.717L311.921,231.629z"/>
                    <g>
                        <path fill="#2B2B2B"
                              d="M311.921,232.665h-0.074c-0.592-0.074-0.962-0.518-0.962-1.11c1.184-15.694-3.331-23.911-7.033-30.5    c-1.258-2.295-2.517-4.442-3.331-6.737c-0.222-0.518,0.074-1.11,0.592-1.333c0.518-0.222,1.11,0.074,1.332,0.592    c0.814,2.147,1.999,4.22,3.257,6.44c3.775,6.811,8.513,15.324,7.255,31.684C312.884,232.221,312.439,232.665,311.921,232.665z"/>
                    </g>

                    <linearGradient id="SVGID_35_-i4" gradientUnits="userSpaceOnUse" x1="55.9882" y1="-1280.8192"
                                    x2="55.9882" y2="-1005.8564" gradientTransform="matrix(1 0 0 1 242.4 1511.04)">
                        <stop offset="0" style="stop-color:#9774AC"/>
                        <stop offset="0.401" style="stop-color:#47A6D3"/>
                        <stop offset="0.5011" style="stop-color:#A7A7AE"/>
                        <stop offset="0.5908" style="stop-color:#E89AC0"/>
                        <stop offset="1" style="stop-color:#BFE7D1"/>
                    </linearGradient>
                    <path fill="url(#SVGID_35_-i4)"
                          d="M284.827,240.587l77.73,37.532c19.321,9.328,31.092,29.315,29.759,50.709   c-3.849,64.775-11.622,196.175-12.067,199.062l-57.372-21.764l-19.321-172.264l-99.198-77.582L284.827,240.587z"/>

                    <linearGradient id="SVGID_36_-i4" gradientUnits="userSpaceOnUse" x1="-348.5604" y1="-2324.834"
                                    x2="-348.5604" y2="-2005.8406"
                                    gradientTransform="matrix(0.9846 0.1746 -0.1746 0.9846 192.2291 2571.3711)">
                        <stop offset="0" style="stop-color:#9774AC"/>
                        <stop offset="0.401" style="stop-color:#47A6D3"/>
                        <stop offset="0.5011" style="stop-color:#A7A7AE"/>
                        <stop offset="0.5908" style="stop-color:#E89AC0"/>
                        <stop offset="1" style="stop-color:#BFE7D1"/>
                    </linearGradient>
                    <path fill="url(#SVGID_36_-i4)"
                          d="M197.621,214.529c-2.813,17.101,0.814,45.009,33.387,49.155l26.428,2.591   c29.685,3.775,51.598-18.211,54.633-36.644L197.621,214.529z"/>
                    <path fill="#2B2B2B"
                          d="M264.469,133.245l-41.826-6.07c0,0,17.471-8.735,29.167-8.735L264.469,133.245z"/>
                    <g>

                        <linearGradient id="SVGID_37_-i4" gradientUnits="userSpaceOnUse" x1="-31.6801" y1="-1227.8872"
                                        x2="-31.6801" y2="-1374.6501" gradientTransform="matrix(1 0 0 1 242.4 1511.04)">
                            <stop offset="0" style="stop-color:#FFE0C2"/>
                            <stop offset="0.401" style="stop-color:#7AAEFC"/>
                            <stop offset="0.5908" style="stop-color:#B8C1FC"/>
                            <stop offset="1" style="stop-color:#D2D4D4"/>
                        </linearGradient>
                        <path fill="url(#SVGID_37_-i4)"
                              d="M241.15,343.042c-1.629-0.74-3.257-1.555-4.886-2.295c-4.442-2.073-35.682-22.283-60.407-38.347    c-18.137-11.771-25.91-34.349-18.951-54.781c12.585-36.866,38.569-92.165,39.975-94.682l3.109-5.7    c0.962-1.703,1.925-3.405,2.887-5.034c9.105-15.546,29.611-21.098,45.009-11.696c13.473,8.217,18.877,24.874,13.325,39.161    c-0.814,1.999-1.629,4.072-2.443,6.07l-2.517,5.996c-1.703,3.998-3.479,7.995-5.256,11.919    c-3.627,7.921-31.758,56.113-31.758,56.113s47.008,47.082,47.822,47.748"/>
                        <path fill="#FDC068"
                              d="M266.986,297.44c2.443,1.999,4.886,3.924,7.255,5.996l4.738,3.998c1.555,1.407,3.109,2.739,4.664,4.146    c9.624,8.809,10.216,23.763,1.407,33.313c-6.811,7.403-17.323,9.476-26.132,5.996c-1.925-0.74-3.849-1.629-5.7-2.443l-5.7-2.517    c-2.147-0.962-4.22-1.925-6.366-2.887"/>
                    </g>
                    <g>
                        <path fill="#4C7DE0"
                              d="M402.532,567.2l-80.173-36.866c-4.738-2.295-6.737-7.847-4.59-12.659l5.182-11.548l57.372,21.764    l27.465,31.166C412.156,562.684,407.714,569.643,402.532,567.2z"/>
                    </g>
                    <g>
                        <g>
                            <g>
                                <path id="SVGID_30_-i4" fill="#FDC068"
                                      d="M296.449,99.34l-20.654-4.072c-10.66-2.147-17.619-12.511-15.546-23.171l6.144-31.166      c3.405-17.101,19.988-28.279,37.088-24.874l0,0c17.101,3.405,28.279,19.988,24.874,37.088l-5.626,28.575      C320.36,93.862,308.59,101.709,296.449,99.34z"/>
                            </g>
                            <g>
                                <path fill="#2B2B2B"
                                      d="M327.245,58.699l-1.333,6.811c-1.258-0.518-2.147-1.777-2.147-3.257      C323.766,60.327,325.32,58.699,327.245,58.699z"/>
                            </g>
                        </g>
                        <path fill="#FDC068"
                              d="M276.24,140.574l-20.95-14.065c-2.369-1.629-3.627-4.442-3.109-7.329l7.847-46.268    c3.331-7.255,35.312-0.37,35.312-0.37l-5.33,60.629C289.417,139.834,282.162,143.757,276.24,140.574z"/>
                        <g>
                            <path fill="#2B2B2B"
                                  d="M316.881,71.136c-0.444,0-0.814-0.296-0.962-0.666c-0.148-0.518,0.074-1.11,0.592-1.333l3.109-1.11     c0.296-0.148,0.518-0.444,0.666-0.74c0.148-0.37,0.074-0.74-0.074-1.11l-3.331-6.07c-0.296-0.518-0.074-1.11,0.37-1.407     c0.518-0.296,1.11-0.074,1.407,0.37l3.331,6.07c0.444,0.814,0.592,1.777,0.296,2.739c-0.296,0.888-0.888,1.629-1.777,1.999     l-0.074,0.074l-3.183,1.11C317.103,71.136,316.955,71.136,316.881,71.136z M320.064,68.989L320.064,68.989L320.064,68.989z"/>
                        </g>
                        <g>
                            <path fill="#2B2B2B"
                                  d="M312.143,82.166c-0.074,0-0.148,0-0.222,0c-1.999-0.074-3.923-1.258-5.626-3.553     c-0.37-0.444-0.222-1.11,0.222-1.407c0.444-0.37,1.11-0.222,1.407,0.222c1.332,1.777,2.665,2.665,4.072,2.739     c1.925,0.074,3.405-1.481,3.405-1.555c0.37-0.444,1.036-0.444,1.407-0.074c0.444,0.37,0.444,1.036,0.074,1.407     C316.807,80.019,314.882,82.166,312.143,82.166z"/>
                        </g>
                        <polygon fill="#2B2B2B" points="293.118,98.6 280.163,94.455 291.934,111.851   "/>
                        <circle fill="#2B2B2B" cx="307.183" cy="58.403" r="3.553"/>
                        <path fill="#4C7DE0"
                              d="M299.633,13.171c0.222,9.402,23.097,32.128,29.389,34.719C328.948,47.965,336.647,20.352,299.633,13.171z"/>
                    </g>
                    <g>
                        <path fill="#2B2B2B"
                              d="M392.686,344.078c-0.592,0-1.036-0.444-1.11-1.036l-0.888-19.099    c-0.888-19.692-12.363-37.384-29.982-46.268l-34.941-17.471c-0.518-0.296-0.74-0.962-0.518-1.481    c0.296-0.518,0.888-0.74,1.481-0.518l34.941,17.471c18.359,9.18,30.278,27.613,31.166,48.118l0.888,19.099    C393.797,343.486,393.352,344.004,392.686,344.078L392.686,344.078z"/>
                    </g>
                    <g>
                        <path fill="#2B2B2B"
                              d="M219.164,250.802c-0.222,0-0.37-0.074-0.518-0.148c-0.518-0.296-0.666-0.962-0.37-1.481l17.397-30.056    c0.296-0.518,0.962-0.666,1.481-0.37c0.518,0.296,0.666,0.962,0.37,1.481l-17.397,30.056    C219.904,250.58,219.534,250.802,219.164,250.802z"/>
                    </g>
                    <g>
                        <path fill="#2B2B2B"
                              d="M326.283,207.496c-0.222,0-0.518-0.074-0.666-0.222c-0.444-0.37-0.518-1.11-0.148-1.555l10.364-12.437    c0.37-0.444,1.11-0.518,1.555-0.148s0.518,1.11,0.148,1.555l-10.364,12.437C326.875,207.348,326.579,207.496,326.283,207.496z"/>
                    </g>
                    <path fill="#FDC068"
                          d="M392.686,158.563c0,0-17.101-7.921-27.316,11.622l17.545,5.182l9.772-1.036V158.563z"/>
                    <path fill="#4C7DE0"
                          d="M303.63,17.983c-10.364-16.138-34.719-14.732-56.706-7.625c-23.615,7.625-35.904-3.553-51.08-8.439   c-26.354-8.513-51.82,13.991-69.439,15.102c-17.545,1.11-41.012-21.986-77.878-15.99C-31.052,14.06-8.844,131.987,86.579,107.928   c21.764-5.478,18.877-15.62,45.009-14.139c37.014,2.073,61.888-25.318,97.421-12.585C265.209,94.084,322.063,46.706,303.63,17.983z   "/>
                    <g>
                        <path fill="#2B2B2B"
                              d="M303.556,334.973c-0.518,0-0.962-0.37-1.036-0.814l-3.923-17.101c-0.148-0.592,0.222-1.184,0.814-1.333    c0.592-0.148,1.184,0.222,1.333,0.814l3.923,17.101c0.148,0.592-0.222,1.184-0.814,1.332    C303.704,334.973,303.63,334.973,303.556,334.973z"/>
                    </g>
                </g>

            </g>
        </g>
    </g>

</svg>
