<?xml version="1.0" encoding="UTF-8"?>
<svg version="1.1" xmlns="http://www.w3.org/2000/svg" viewBox="0 0 1500 1500" width="1500" height="1500" x="0px"
     y="0px">


    <!-- ITEM 0 -->
    <g>
        <defs>
            <clipPath id="clip-path-id-viewbox-item-0">
                <rect x="0.0" y="0.0" width="704.133" height="599.705"/>
            </clipPath>
        </defs>
        <g transform="translate(103.0 136.0) rotate(0.0 647.0 552.5) scale(1.8377209987317735 1.842572598194112)">
            <g clip-path="url(#clip-path-id-viewbox-item-0)" transform="translate(-0.0 -0.0)">

                <g>
                    <linearGradient id="SVGID_7_-i0" gradientUnits="userSpaceOnUse" x1="3624.9148" y1="-1036.6703"
                                    x2="3624.9148" y2="-916.3524"
                                    gradientTransform="matrix(-1 0 0 1 4225.8374 1511.04)">
                        <stop offset="0" style="stop-color:#FFD8A1"/>
                        <stop offset="0.9958" style="stop-color:#FFFFFF"/>
                    </linearGradient>
                    <path fill="url(#SVGID_7_-i0)"
                          d="M497.712,599.705c58.745,0,56.9-89.151,108.044-100.959c20.443-4.723,31.513-19.779,40.959-36.236   c15.72-27.306,57.417-16.236,57.417,15.277v121.919L497.712,599.705L497.712,599.705z"/>
                    <g>
                        <circle fill="#BFD9FF" cx="666.125" cy="155.72" r="3.026"/>
                        <circle fill="#BFD9FF" cx="303.985" cy="456.162" r="3.026"/>
                        <circle fill="#BFD9FF" cx="555.498" cy="33.506" r="3.026"/>
                        <circle fill="#BFD9FF" cx="367.085" cy="132.399" r="3.026"/>
                        <circle fill="#BFD9FF" cx="25.092" cy="138.155" r="3.026"/>
                        <circle fill="#BFD9FF" cx="576.605" cy="365.166" r="2.804"/>
                        <circle fill="#BFD9FF" cx="40" cy="371.808" r="2.804"/>
                    </g>
                    <g>
                        <path fill="#F9D5FF"
                              d="M306.79,88.561v-7.38c9.815,0,26.494-17.196,42.731-33.875C372.103,24.059,395.424,0,416.679,0v7.38    c-18.155,0-41.402,23.911-61.919,45.018C335.941,71.808,319.705,88.561,306.79,88.561z"/>
                    </g>
                </g>

            </g>
        </g>
    </g>

    <!-- ITEM 1 -->
    <g>
        <defs>
            <clipPath id="clip-path-id-viewbox-item-1">
                <rect x="0.0" y="0.0" width="252.217" height="591.663"/>
            </clipPath>
        </defs>
        <g transform="translate(838.0 153.0) rotate(0.0 231.5 543.5) scale(1.8357208276999566 1.8371944840221546)">
            <g clip-path="url(#clip-path-id-viewbox-item-1)" transform="translate(-0.0 -0.0)">
                <title>Navigation_post</title>
                <g id="Layer_2-i1" data-name="Layer 2">
                    <g id="Layer_1-2-i1" data-name="Layer 1">
                        <polygon
                            points="34.136 286.793 84.616 286.793 84.616 214.615 34.136 214.615 4.173 250.704 34.136 286.793"
                            fill="#fff"/>
                        <path
                            d="M84.616,288.638H34.136a1.818,1.818,0,0,1-1.4-.665L2.771,251.885a1.8,1.8,0,0,1,0-2.362l29.963-36.088a1.818,1.818,0,0,1,1.4-.665h50.48a1.827,1.827,0,0,1,1.845,1.845v72.178A1.827,1.827,0,0,1,84.616,288.638Zm-49.594-3.69H82.771V216.46H35.022L6.609,250.7Z"
                            fill="#f9d0b5"/>
                        <polygon
                            points="59.745 166.793 108.601 166.793 108.601 92.918 59.745 92.918 43.657 129.818 59.745 166.793"
                            fill="#fff"/>
                        <path
                            d="M108.6,168.638H59.745a1.864,1.864,0,0,1-1.7-1.107L41.959,130.556a1.726,1.726,0,0,1,0-1.476l16.089-36.9a1.864,1.864,0,0,1,1.7-1.107H108.6a1.827,1.827,0,0,1,1.845,1.845v73.875A1.827,1.827,0,0,1,108.6,168.638Zm-47.675-3.691h45.83V94.763H60.926L45.649,129.818Z"
                            fill="#f9d0b5"/>
                        <polygon
                            points="148.085 31.294 116.35 1.848 84.616 31.294 84.616 589.154 148.085 589.154 148.085 31.294"
                            fill="#fff"/>
                        <path
                            d="M148.085,591H84.616a1.827,1.827,0,0,1-1.845-1.845V31.294a1.728,1.728,0,0,1,.59-1.328L115.1.519a1.829,1.829,0,0,1,2.509,0l31.734,29.447a1.849,1.849,0,0,1,.591,1.328v557.86A1.827,1.827,0,0,1,148.085,591Zm-61.624-3.69H146.24V32.106L116.35,4.357,86.461,32.106Z"
                            fill="#f9d0b5"/>
                        <polygon points="107.642 363.398 84.616 391.221 84.764 356.829 107.642 363.398" fill="#2b2b2b"/>
                        <path
                            d="M84.616,393.066a2.037,2.037,0,0,1-.664-.074,1.751,1.751,0,0,1-1.181-1.771l.148-34.392a1.926,1.926,0,0,1,.738-1.476,1.8,1.8,0,0,1,1.623-.3l22.878,6.569a1.792,1.792,0,0,1,1.255,1.254,1.767,1.767,0,0,1-.369,1.7L86.018,392.4A1.817,1.817,0,0,1,84.616,393.066Zm1.993-33.8-.148,26.789,17.934-21.7Z"
                            fill="#2b2b2b"/>
                        <polygon points="107.642 233.066 84.616 260.888 84.764 226.424 107.642 233.066" fill="#2b2b2b"/>
                        <path
                            d="M84.616,262.733a2.063,2.063,0,0,1-.664-.073,1.752,1.752,0,0,1-1.181-1.772l.148-34.464a1.927,1.927,0,0,1,.738-1.477,1.8,1.8,0,0,1,1.623-.3l22.878,6.642a1.936,1.936,0,0,1,1.255,1.255,1.765,1.765,0,0,1-.369,1.7L86.018,262.069A1.816,1.816,0,0,1,84.616,262.733Zm1.993-33.874-.148,26.863,17.934-21.7Z"
                            fill="#2b2b2b"/>
                        <polygon
                            points="179.45 232.475 120.114 232.475 120.114 158.601 179.45 158.601 204.026 191.959 179.45 232.475"
                            fill="#2b2b2b"/>
                        <path
                            d="M179.45,234.32H120.114a1.827,1.827,0,0,1-1.845-1.845V158.6a1.827,1.827,0,0,1,1.845-1.845H179.45a1.926,1.926,0,0,1,1.476.738L205.5,190.852a1.772,1.772,0,0,1,.073,2.066L181,233.435A1.8,1.8,0,0,1,179.45,234.32Zm-57.491-3.69h56.458l23.4-38.6-23.321-31.586H121.959V230.63Z"
                            fill="#2b2b2b"/>
                        <path
                            d="M149.339,29.966,117.605.519A1.816,1.816,0,0,0,115.612.15a1.867,1.867,0,0,0-1.107,1.7v587.97a1.849,1.849,0,0,0,.591,1.329,1.726,1.726,0,0,0,1.254.516h.074L148.158,591a1.767,1.767,0,0,0,1.772-1.845V31.294A1.728,1.728,0,0,0,149.339,29.966Z"
                            fill="#f9d0b5"/>
                        <polygon points="142.181 321.184 148.085 337.272 148.085 313.361 142.181 321.184"
                                 fill="#2b2b2b"/>
                        <path
                            d="M148.085,339.117a1.752,1.752,0,0,1-1.7-1.181l-5.9-16.088a1.737,1.737,0,0,1,.295-1.771l5.9-7.823A1.835,1.835,0,0,1,150,313.361v23.911a1.957,1.957,0,0,1-1.549,1.845Zm-3.838-17.638,1.993,5.387v-8.044Z"
                            fill="#2b2b2b"/>
                        <polygon points="124.099 166.793 149.561 197.641 149.561 155.722 124.099 166.793"
                                 fill="#2b2b2b"/>
                        <path
                            d="M149.561,199.486a1.818,1.818,0,0,1-1.4-.664L122.7,167.973a1.823,1.823,0,0,1-.369-1.623,1.8,1.8,0,0,1,1.033-1.255l25.462-11.07a1.883,1.883,0,0,1,1.771.148,1.828,1.828,0,0,1,.812,1.549v41.919a1.912,1.912,0,0,1-1.255,1.771A1.435,1.435,0,0,1,149.561,199.486Zm-22.51-31.955,20.665,25.018V158.6Z"
                            fill="#2b2b2b"/>
                        <path
                            d="M251.775,283.914l-29.963-36.088a1.818,1.818,0,0,0-1.4-.664H152.144a1.826,1.826,0,0,0-1.845,1.845v72.177a1.827,1.827,0,0,0,1.845,1.845h68.265a1.819,1.819,0,0,0,1.4-.665l29.963-36.088A1.8,1.8,0,0,0,251.775,283.914Z"
                            fill="#f9d0b5"/>
                        <polygon
                            points="210.446 321.184 142.181 321.184 142.181 249.007 210.446 249.007 240.409 285.095 210.446 321.184"
                            fill="#fff"/>
                        <path
                            d="M210.446,323.029H142.181a1.827,1.827,0,0,1-1.845-1.845V249.007a1.826,1.826,0,0,1,1.845-1.845h68.265a1.816,1.816,0,0,1,1.4.664l29.964,36.088a1.8,1.8,0,0,1,0,2.362l-29.964,36.089A1.819,1.819,0,0,1,210.446,323.029Zm-66.42-3.69h65.535L237.974,285.1l-28.413-34.243H144.026Z"
                            fill="#f9d0b5"/>
                        <path
                            d="M148.085,561.7H84.616a1.827,1.827,0,0,0-1.845,1.845V589.08a1.827,1.827,0,0,0,1.845,1.845h63.469a1.827,1.827,0,0,0,1.845-1.845V563.545A1.827,1.827,0,0,0,148.085,561.7Z"
                            fill="#f9d0b5"/>
                        <path
                            d="M148.085,507.457H84.616a1.827,1.827,0,0,0-1.845,1.845v25.535a1.827,1.827,0,0,0,1.845,1.845h63.469a1.827,1.827,0,0,0,1.845-1.845V509.3A1.827,1.827,0,0,0,148.085,507.457Z"
                            fill="#f9d0b5"/>
                        <path
                            d="M148.085,453.213H84.616a1.827,1.827,0,0,0-1.845,1.845v25.535a1.827,1.827,0,0,0,1.845,1.845h63.469a1.827,1.827,0,0,0,1.845-1.845V455.058A1.827,1.827,0,0,0,148.085,453.213Z"
                            fill="#f9d0b5"/>
                        <rect x="116.35" y="563.545" width="31.734" height="25.535" fill="#2b2b2b"/>
                        <path
                            d="M148.085,590.925H116.35a1.827,1.827,0,0,1-1.845-1.845V563.545a1.827,1.827,0,0,1,1.845-1.845h31.735a1.827,1.827,0,0,1,1.845,1.845V589.08A1.827,1.827,0,0,1,148.085,590.925Zm-29.89-3.69H146.24V565.39H118.2Z"
                            fill="#2b2b2b"/>
                        <rect x="116.35" y="509.302" width="31.734" height="25.535" fill="#2b2b2b"/>
                        <path
                            d="M148.085,536.682H116.35a1.827,1.827,0,0,1-1.845-1.845V509.3a1.827,1.827,0,0,1,1.845-1.845h31.735a1.827,1.827,0,0,1,1.845,1.845v25.535A1.827,1.827,0,0,1,148.085,536.682Zm-29.89-3.69H146.24V511.147H118.2Z"
                            fill="#2b2b2b"/>
                        <rect x="116.35" y="455.058" width="31.734" height="25.535" fill="#2b2b2b"/>
                        <path
                            d="M148.085,482.438H116.35a1.827,1.827,0,0,1-1.845-1.845V455.058a1.827,1.827,0,0,1,1.845-1.845h31.735a1.827,1.827,0,0,1,1.845,1.845v25.535A1.827,1.827,0,0,1,148.085,482.438Zm-29.89-3.69H146.24V456.9H118.2Z"
                            fill="#2b2b2b"/>
                        <path
                            d="M148.085,48.564H84.616a1.827,1.827,0,0,0-1.845,1.845V75.944a1.827,1.827,0,0,0,1.845,1.845h63.469a1.827,1.827,0,0,0,1.845-1.845V50.409A1.827,1.827,0,0,0,148.085,48.564Z"
                            fill="#f9d0b5"/>
                        <rect x="116.35" y="50.409" width="31.734" height="25.535" fill="#2b2b2b"/>
                        <path
                            d="M148.085,77.789H116.35a1.827,1.827,0,0,1-1.845-1.845V50.409a1.827,1.827,0,0,1,1.845-1.845h31.735a1.827,1.827,0,0,1,1.845,1.845V75.944A1.827,1.827,0,0,1,148.085,77.789ZM118.2,74.1H146.24V52.254H118.2Z"
                            fill="#2b2b2b"/>
                        <polygon
                            points="38.712 363.398 98.122 363.398 98.122 289.523 38.712 289.523 14.136 322.881 38.712 363.398"
                            fill="#fff"/>
                        <path
                            d="M98.122,365.243H38.712a1.8,1.8,0,0,1-1.55-.886L12.586,323.84a1.9,1.9,0,0,1,.074-2.066l24.576-33.358a1.926,1.926,0,0,1,1.476-.738h59.41a1.827,1.827,0,0,1,1.845,1.845V363.4A1.827,1.827,0,0,1,98.122,365.243Zm-58.377-3.69H96.277V291.368H39.671L16.35,322.955Z"
                            fill="#f9d0b5"/>
                        <path
                            d="M108.6,287.678H49.265a1.926,1.926,0,0,0-1.476.738L23.214,321.774a1.77,1.77,0,0,0-.074,2.066l24.576,40.517a2,2,0,0,0,1.549.886H108.6a1.827,1.827,0,0,0,1.845-1.845V289.523A1.827,1.827,0,0,0,108.6,287.678Z"
                            fill="#f9d0b5"/>
                        <polygon
                            points="21.147 232.475 98.122 232.475 98.122 158.601 21.147 158.601 1.885 191.959 21.147 232.475"
                            fill="#fff"/>
                        <path
                            d="M98.122,234.32H21.147a2.021,2.021,0,0,1-1.7-1.033L.188,192.77a1.742,1.742,0,0,1,.074-1.7l19.262-33.358a1.771,1.771,0,0,1,1.623-.886H98.121a1.827,1.827,0,0,1,1.845,1.845v73.875A1.811,1.811,0,0,1,98.122,234.32Zm-75.794-3.69H96.277V160.446h-74.1L3.952,192.032Z"
                            fill="#f9d0b5"/>
                        <path
                            d="M108.6,156.756H31.7a2.03,2.03,0,0,0-1.624.885L10.815,191a1.964,1.964,0,0,0-.074,1.7L30,233.213a1.8,1.8,0,0,0,1.7,1.033h76.9a1.827,1.827,0,0,0,1.845-1.845V158.6A1.827,1.827,0,0,0,108.6,156.756Z"
                            fill="#f9d0b5"/>
                        <path
                            d="M201.3,129.08l-16.089-36.9a1.864,1.864,0,0,0-1.7-1.107H134.653a1.827,1.827,0,0,0-1.845,1.845v73.875a1.827,1.827,0,0,0,1.845,1.845h48.856a1.864,1.864,0,0,0,1.7-1.107L201.3,130.556A1.726,1.726,0,0,0,201.3,129.08Z"
                            fill="#f9d0b5"/>
                        <polygon
                            points="172.955 166.793 124.099 166.793 124.099 92.918 172.955 92.918 189.044 129.818 172.955 166.793"
                            fill="#fff"/>
                        <path
                            d="M172.955,168.638H124.1a1.827,1.827,0,0,1-1.845-1.845V92.918a1.827,1.827,0,0,1,1.845-1.845h48.856a1.866,1.866,0,0,1,1.7,1.107l16.088,36.9a1.719,1.719,0,0,1,0,1.476l-16.088,36.975A1.866,1.866,0,0,1,172.955,168.638Zm-47.011-3.691h45.831l15.276-35.129L171.775,94.763H125.944Z"
                            fill="#f9d0b5"/>
                    </g>
                </g>
            </g>
        </g>
    </g>

    <!-- ITEM 2 -->
    <g>
        <defs>
            <clipPath id="clip-path-id-viewbox-item-2">
                <rect x="0.0" y="0.0" width="282.564" height="582.947"/>
            </clipPath>
        </defs>
        <g transform="translate(117.0 167.0) rotate(0.0 260.0 535.0) scale(1.8402910491074587 1.8355013406021474)">
            <g clip-path="url(#clip-path-id-viewbox-item-2)" transform="translate(-0.0 -0.0)">

                <g>
                    <g>
                        <path fill="#BE6361"
                              d="M199.703,112.056v163.321c0,24.428-19.779,44.207-44.207,44.207H96.825    c-24.428,0-44.207-19.779-44.207-44.207V112.056"/>
                        <path fill="#2B2B2B"
                              d="M52.618,112.056c0-24.428,19.779-44.207,44.207-44.207h58.672c24.428,0,44.207,19.779,44.207,44.207"/>

                        <linearGradient id="SVGID_7_-i2" gradientUnits="userSpaceOnUse" x1="-54.4755" y1="-1299.3739"
                                        x2="-54.4755" y2="-1406.5477" gradientTransform="matrix(1 0 0 1 242.4 1511.04)">
                            <stop offset="0" style="stop-color:#6B9C83"/>
                            <stop offset="0.401" style="stop-color:#A6A6A4"/>
                            <stop offset="0.5011" style="stop-color:#9F9FC8"/>
                            <stop offset="0.5908" style="stop-color:#9FCCEC"/>
                            <stop offset="1" style="stop-color:#FFE7B0"/>
                        </linearGradient>
                        <path fill="url(#SVGID_7_-i2)"
                              d="M165.533,179.215l-9.889-37.048c-4.059-15.129,4.945-30.701,20.148-34.76    c15.129-4.059,30.701,4.945,34.76,20.148l10.627,39.852"/>
                        <path fill="#FDC068"
                              d="M221.179,167.333l16.531,61.993l-3.173-7.38l45.83,90.923c5.092,10.111,1.033,22.435-9.077,27.528    c-9.151,4.576-20.074,1.697-25.904-6.347l-59.483-82.657c-1.255-1.771-2.14-3.69-2.731-5.683l-0.443-1.771l-17.343-64.871"/>
                        <polygon fill="#2B2B2B" points="213.356,213.237 240.219,327.702 209.075,284.381   "/>

                        <linearGradient id="SVGID_18_-i2" gradientUnits="userSpaceOnUse" x1="-82.2248" y1="-1299.3739"
                                        x2="-82.2248" y2="-1406.5477" gradientTransform="matrix(1 0 0 1 242.4 1511.04)">
                            <stop offset="0" style="stop-color:#6B9C83"/>
                            <stop offset="0.401" style="stop-color:#A6A6A4"/>
                            <stop offset="0.5011" style="stop-color:#9F9FC8"/>
                            <stop offset="0.5908" style="stop-color:#9FCCEC"/>
                            <stop offset="1" style="stop-color:#FFE7B0"/>
                        </linearGradient>
                        <path fill="url(#SVGID_18_-i2)"
                              d="M211.88,197.369c1.255-27.823-17.934-27.38-9.742-45.683c8.192-18.303,0.886-44.945-20.443-45.83    c-16.458-0.738-17.565-1.476-24.502-1.771c-21.919-0.959-38.081,20.664-32.694,41.993c0,0,1.476,4.797,1.033,11.07    c-0.443,6.273-16.31,14.908-17.122,33.948L211.88,197.369z"/>
                        <g>
                            <path fill="#2B2B2B"
                                  d="M207.23,175.672l-6.273-10.996l1.697-8.561c3.838-13.727-0.812-28.413-11.734-37.565l-17.196-14.244     l7.085-8.487l17.196,14.244c14.317,11.882,20.369,31.144,15.351,49.004L207.23,175.672z"/>
                        </g>

                        <linearGradient id="SVGID_34_-i2" gradientUnits="userSpaceOnUse" x1="-67.166" y1="-945.8116"
                                        x2="-67.166" y2="-1326.9435" gradientTransform="matrix(1 0 0 1 242.4 1511.04)">
                            <stop offset="0" style="stop-color:#77879D"/>
                            <stop offset="0.0893" style="stop-color:#A1978E"/>
                            <stop offset="0.1883" style="stop-color:#C9A780"/>
                            <stop offset="0.2791" style="stop-color:#E5B275"/>
                            <stop offset="0.3578" style="stop-color:#F7B96F"/>
                            <stop offset="0.4155" style="stop-color:#FDBB6D"/>
                            <stop offset="0.4989" style="stop-color:#FDBB9F"/>
                            <stop offset="0.599" style="stop-color:#D1D2D1"/>
                            <stop offset="1" style="stop-color:#FECEAA"/>
                        </linearGradient>
                        <path fill="url(#SVGID_34_-i2)"
                              d="M211.954,195.672c0,0,3.764,44.871,4.428,52.325c1.402,14.908,2.435,29.889,3.1,44.797    c1.402,29.963,1.697,59.926,1.107,89.963c-0.221,15.055-0.738,30.037-1.328,45.092c-0.295,7.528-0.738,15.055-1.033,22.583    l-0.664,11.292c-0.221,3.764-0.443,7.528-0.738,11.292l-0.812,11.292l-0.886,11.292c-0.295,3.764-0.664,7.528-0.959,11.292    l-0.517,5.683l-0.59,5.683l-1.181,11.365l-0.59,5.683l-0.738,5.683c-0.517,3.764-0.886,7.528-1.476,11.365    c-0.59,3.764-1.624,10.849-2.214,14.612l-53.284-3.542l-12.694-175.572l-11.292-179.41L211.954,195.672z"/>

                        <linearGradient id="SVGID_35_-i2" gradientUnits="userSpaceOnUse" x1="-151.6271" y1="-945.4994"
                                        x2="-151.6271" y2="-1319.0361"
                                        gradientTransform="matrix(1 0 0 1 242.4 1511.04)">
                            <stop offset="0" style="stop-color:#77879D"/>
                            <stop offset="0.0893" style="stop-color:#A1978E"/>
                            <stop offset="0.1883" style="stop-color:#C9A780"/>
                            <stop offset="0.2791" style="stop-color:#E5B275"/>
                            <stop offset="0.3578" style="stop-color:#F7B96F"/>
                            <stop offset="0.4155" style="stop-color:#FDBB6D"/>
                            <stop offset="0.4989" style="stop-color:#FDBB9F"/>
                            <stop offset="0.599" style="stop-color:#D1D2D1"/>
                            <stop offset="1" style="stop-color:#FECEAA"/>
                        </linearGradient>
                        <path fill="url(#SVGID_35_-i2)"
                              d="M177.194,218.477l-0.221,2.731l-0.295,2.731l-0.517,5.387l-1.328,10.701    c-0.443,3.616-0.959,7.159-1.476,10.701l-1.624,10.701c-2.214,14.244-4.871,28.339-7.675,42.435    c-2.804,14.096-5.978,28.118-9.225,42.14c-3.395,14.022-6.863,27.97-10.627,41.919l-1.697,6.421l-0.295,0.664    c-6.642,13.653-13.506,27.306-20.517,40.812l-5.24,10.185l-5.387,10.111c-3.542,6.716-7.306,13.432-10.923,20.148    c-7.454,13.358-15.055,26.716-23.026,39.852c-8.044,13.136-16.089,26.273-24.945,39.114L4.352,530.506l62.804-164.871    l-2.066,7.159l32.472-169.52L177.194,218.477z"/>
                        <path fill="#2B2B2B"
                              d="M75.644,322.24c19.262-6.199,76.827-2.509,83.1,7.085l7.749-35.055l-88.192,2.14L75.644,322.24z"/>

                        <linearGradient id="SVGID_36_-i2" gradientUnits="userSpaceOnUse" x1="-82.2285" y1="-945.4994"
                                        x2="-82.2285" y2="-1319.0361" gradientTransform="matrix(1 0 0 1 242.4 1511.04)">
                            <stop offset="0" style="stop-color:#77879D"/>
                            <stop offset="0.0893" style="stop-color:#A1978E"/>
                            <stop offset="0.1883" style="stop-color:#C9A780"/>
                            <stop offset="0.2791" style="stop-color:#E5B275"/>
                            <stop offset="0.3578" style="stop-color:#F7B96F"/>
                            <stop offset="0.4155" style="stop-color:#FDBB6D"/>
                            <stop offset="0.4989" style="stop-color:#FDBB9F"/>
                            <stop offset="0.599" style="stop-color:#D1D2D1"/>
                            <stop offset="1" style="stop-color:#FECEAA"/>
                        </linearGradient>
                        <path fill="url(#SVGID_36_-i2)"
                              d="M108.411,191.096c-0.664,14.686,13.727,37.343,39.262,38.672l20.664,0.443    c23.321,1.181,42.952-18.672,43.616-34.539L108.411,191.096z"/>
                        <g>
                            <g>
                                <g>
                                    <path id="SVGID_26_-i2" fill="#FDC068"
                                          d="M191.142,90.875l-19.188-1.845c-9.889-0.959-17.196-9.742-16.236-19.705l2.804-28.93       c1.55-15.867,15.646-27.454,31.513-25.978l0,0c15.867,1.55,27.454,15.646,25.978,31.513l-2.583,26.494       C212.396,83.716,202.36,91.982,191.142,90.875z"/>
                                </g>
                                <g>
                                    <path fill="#2B2B2B"
                                          d="M215.496,51.096l-0.59,6.273c-1.255-0.443-2.214-1.624-2.214-3.1       C212.692,52.72,213.946,51.318,215.496,51.096z"/>
                                </g>
                            </g>
                            <path fill="#FDC068"
                                  d="M172.913,122.167l-23.69-11.439l7.897-54.391l30.554,2.952l-2.509,55.572     C184.869,120.986,178.374,124.823,172.913,122.167z"/>
                            <g>
                                <path fill="#2B2B2B"
                                      d="M207.083,63.495c-0.369,0-0.738-0.221-0.886-0.517c-0.221-0.517,0-1.033,0.443-1.255l2.731-1.328      c0.295-0.148,0.443-0.443,0.517-0.812s0-0.664-0.221-0.959l-3.616-5.24c-0.295-0.443-0.221-1.033,0.221-1.328      c0.443-0.295,1.033-0.221,1.328,0.221l3.616,5.24c0.517,0.664,0.664,1.624,0.517,2.435c-0.148,0.886-0.738,1.624-1.476,2.066      l-0.074,0.074l-2.804,1.328C207.378,63.495,207.23,63.495,207.083,63.495z M209.887,61.207L209.887,61.207L209.887,61.207z"/>
                            </g>
                            <g>
                                <path fill="#2B2B2B"
                                      d="M203.393,73.827c-1.771,0-3.469-0.886-5.166-2.657c-0.369-0.369-0.369-1.033,0.074-1.328      c0.369-0.369,1.033-0.369,1.328,0.074c1.402,1.476,2.731,2.14,3.985,2.066c1.697-0.148,2.878-1.624,2.878-1.697      c0.295-0.443,0.886-0.517,1.328-0.221c0.443,0.295,0.517,0.886,0.221,1.328c-0.074,0.074-1.624,2.288-4.28,2.509      C203.614,73.827,203.467,73.827,203.393,73.827z"/>
                            </g>
                            <polygon fill="#2B2B2B" points="189.518,90.727 173.725,89.178 185.681,102.831    "/>
                            <circle fill="#2B2B2B" cx="197.194" cy="52.72" r="3.247"/>
                        </g>
                        <g>
                            <g>
                                <g>
                                    <path fill="#F4E1E1"
                                          d="M38.005,213.753c-0.295,0-0.517-0.074-0.738-0.295c-0.221-0.148-0.295-0.443-0.295-0.738       c0.221-15.351,0.443-30.701,0.664-46.052c0-0.59,0.443-1.033,1.033-1.033c46.568,0.295,93.801,1.107,140.738,1.919       c0.295,0,0.517,0.148,0.738,0.295c0.221,0.221,0.295,0.443,0.295,0.738c-0.221,15.351-0.443,30.701-0.59,46.052       c0,0.59-0.443,0.959-1.033,0.959C131.954,212.277,84.943,211.687,38.005,213.753z"/>
                                    <path fill="#BE6361"
                                          d="M38.67,166.742c46.863,0.517,93.801,1.107,140.664,1.919c-0.221,15.351-0.443,30.701-0.59,46.052       c-46.863-3.173-93.727-3.764-140.738-1.919C38.227,197.369,38.448,182.019,38.67,166.742 M38.67,164.676       c-1.107,0-1.993,0.886-2.066,1.993c-0.221,15.351-0.443,30.701-0.664,46.125c0,0.517,0.221,1.033,0.59,1.402       s0.886,0.59,1.402,0.517c46.937-1.919,93.801-1.328,140.738,1.919l0,0c0.517,0,1.033-0.148,1.402-0.517       c0.369-0.369,0.59-0.886,0.59-1.402c0.221-15.351,0.443-30.775,0.664-46.125c0-1.107-0.886-2.066-1.993-2.066       C132.47,165.857,85.607,165.34,38.67,164.676L38.67,164.676L38.67,164.676z"/>
                                </g>
                                <g>
                                    <path fill="#F4E1E1"
                                          d="M36.751,305.93c-0.295,0.074-0.517,0-0.738-0.221c-0.221-0.148-0.295-0.369-0.295-0.664       c0.221-15.424,0.443-30.775,0.664-46.199c0-0.59,0.443-1.033,1.033-1.107c46.421-4.723,94.096-3.911,140.738,1.845       c0.59,0.074,1.033,0.59,1.033,1.107c-0.221,15.351-0.443,30.627-0.59,45.978c0,0.295-0.148,0.517-0.295,0.664       c-0.221,0.148-0.443,0.221-0.738,0.148C131.068,299.288,83.393,298.846,36.751,305.93z"/>
                                    <path fill="#BE6361"
                                          d="M37.415,258.772c47.011-4.207,93.801-3.616,140.738,1.845c-0.221,15.277-0.443,30.627-0.59,45.904       c-46.937-7.749-93.653-8.192-140.738-1.624C36.972,289.547,37.194,274.122,37.415,258.772 M37.415,256.705       c-1.107,0.148-1.993,1.107-2.066,2.214c-0.221,15.424-0.443,30.849-0.59,46.273c0,0.517,0.221,1.033,0.59,1.328       c0.369,0.295,0.886,0.443,1.402,0.369c47.085-6.716,93.801-6.273,140.738,1.624l0,0c1.107,0.148,1.993-0.59,1.993-1.697       c0.221-15.351,0.443-30.701,0.59-45.978c0-0.517-0.221-1.107-0.59-1.55s-0.886-0.738-1.402-0.738       C131.289,253.237,84.426,252.646,37.415,256.705L37.415,256.705L37.415,256.705z"/>
                                </g>
                                <g>
                                    <path fill="#D6C1C1"
                                          d="M37.415,259.805c-0.295,0-0.517-0.074-0.738-0.221c-0.221-0.148-0.295-0.443-0.295-0.664       c0.221-15.351,0.443-30.775,0.664-46.125c0-0.59,0.443-1.033,1.033-1.033c46.568-2.214,93.875-1.328,140.738,1.919       c0.295,0,0.517,0.148,0.738,0.369s0.295,0.443,0.295,0.738c-0.221,15.351-0.443,30.701-0.59,45.978       c0,0.59-0.443,0.959-1.033,0.886C131.511,255.746,84.205,255.229,37.415,259.805z"/>
                                    <path fill="#BE6361"
                                          d="M38.079,212.72c46.937-1.771,93.801-1.255,140.738,1.919c-0.221,15.351-0.443,30.627-0.59,45.978       c-46.863-5.461-93.727-6.052-140.738-1.845C37.636,243.421,37.858,228.071,38.079,212.72 M38.005,210.654       c-1.107,0.074-1.993,1.033-2.066,2.14c-0.221,15.424-0.443,30.775-0.664,46.199c0,0.517,0.221,1.033,0.59,1.402       c0.369,0.369,0.886,0.517,1.402,0.443c47.011-4.28,93.801-3.764,140.738,1.845l0,0c1.107,0.148,1.993-0.664,2.066-1.771       c0.221-15.351,0.443-30.701,0.59-46.052c0-0.517-0.221-1.107-0.59-1.476c-0.369-0.443-0.886-0.664-1.402-0.664       C131.88,209.547,85.016,208.956,38.005,210.654C38.079,210.654,38.079,210.654,38.005,210.654L38.005,210.654z"/>
                                </g>
                                <path fill="#D4B0D6"
                                      d="M147.23,257.517c-5.387,6.125-10.849,12.251-16.236,18.376c-2.435,2.731-6.79,3.173-9.889,0.886      c-9.594-6.863-19.336-13.579-29.151-20.221C110.404,256.262,128.78,256.558,147.23,257.517z"/>
                                <g>
                                    <path fill="#C595C8"
                                          d="M80.515,211.613c4.576,3.395,6.79,5.092,11.365,8.487c-0.295,11.882-0.664,23.838-0.959,35.72       c0.443,0.295,0.664,0.443,1.107,0.738c18.45-0.369,36.827,0,55.277,0.959c-3.395-5.461-6.79-10.849-10.258-16.236       c11.661-9.004,23.247-18.007,34.834-27.085C141.4,212.277,110.994,211.465,80.515,211.613z"/>
                                </g>
                                <path fill="#D4B0D6"
                                      d="M80.515,211.613c-4.649-5.461-9.373-10.923-14.022-16.384c-4.354-5.387-2.435-13.137,3.616-16.236      c8.044-3.911,16.089-7.823,24.133-11.661c20.664,0.295,41.255,0.517,61.919,0.886c5.314,15.277,10.553,30.627,15.72,45.978      C141.4,212.277,110.994,211.465,80.515,211.613z"/>
                                <g>
                                    <g>
                                        <path fill="#BE6361"
                                              d="M118.817,180.986c-0.369,0-0.664-0.148-0.886-0.443l-0.959-1.328c-0.369-0.517-0.221-1.181,0.221-1.55        c0.517-0.369,1.181-0.221,1.55,0.221l0.959,1.328c0.369,0.517,0.221,1.181-0.221,1.55        C119.26,180.912,119.039,180.986,118.817,180.986z"/>
                                    </g>
                                    <g>
                                        <path fill="#BE6361"
                                              d="M137.858,208.661c-0.369,0-0.738-0.148-0.886-0.517c-0.738-1.033-1.402-2.14-2.14-3.173        c-0.369-0.517-0.221-1.181,0.295-1.55c0.517-0.369,1.181-0.221,1.55,0.295c0.738,1.033,1.402,2.14,2.14,3.173        c0.369,0.517,0.221,1.181-0.295,1.55C138.301,208.587,138.079,208.661,137.858,208.661z M131.437,199.215        c-0.369,0-0.664-0.148-0.886-0.517l-2.14-3.173c-0.369-0.517-0.221-1.181,0.295-1.55c0.517-0.369,1.181-0.221,1.55,0.295        l2.14,3.173c0.369,0.517,0.221,1.181-0.295,1.55C131.88,199.141,131.658,199.215,131.437,199.215z M124.869,189.768        c-0.369,0-0.664-0.148-0.886-0.443l-2.14-3.173c-0.369-0.517-0.221-1.181,0.295-1.55s1.181-0.221,1.55,0.295l2.14,3.173        c0.369,0.517,0.221,1.181-0.295,1.55C125.312,189.694,125.09,189.768,124.869,189.768z"/>
                                    </g>
                                    <g>
                                        <path fill="#BE6361"
                                              d="M139.85,214.565c-0.369,0-0.738-0.148-0.959-0.517c-0.295-0.517-0.148-1.181,0.369-1.55        c0.148-0.074,0.295-0.148,0.443-0.295c-0.074-0.148-0.221-0.295-0.369-0.517c-0.295-0.517-0.148-1.181,0.369-1.55        c0.517-0.295,1.181-0.148,1.55,0.369c0.148,0.295,0.295,0.443,0.443,0.664s0.295,0.443,0.517,0.738        c0.295,0.517,0.148,1.181-0.295,1.476c-0.369,0.295-0.664,0.443-0.959,0.59c-0.148,0.074-0.295,0.148-0.517,0.295        C140.219,214.491,140.072,214.565,139.85,214.565z"/>
                                    </g>
                                    <g>
                                        <path fill="#BE6361"
                                              d="M110.625,234.27c-0.369,0-0.738-0.148-0.886-0.517c-0.369-0.517-0.221-1.181,0.295-1.55l3.321-2.214        c0.517-0.369,1.181-0.221,1.55,0.295c0.369,0.517,0.221,1.181-0.295,1.55l-3.321,2.214        C111.068,234.196,110.847,234.27,110.625,234.27z M120.588,227.554c-0.369,0-0.738-0.148-0.886-0.517        c-0.369-0.517-0.221-1.181,0.295-1.55l3.321-2.214c0.517-0.369,1.181-0.221,1.55,0.295c0.369,0.517,0.221,1.181-0.295,1.55        l-3.321,2.214C121.031,227.48,120.81,227.554,120.588,227.554z M130.551,220.838c-0.369,0-0.738-0.148-0.886-0.517        c-0.369-0.517-0.221-1.181,0.295-1.55l3.321-2.214c0.517-0.369,1.181-0.221,1.55,0.295c0.369,0.517,0.221,1.181-0.295,1.55        l-3.321,2.214C130.994,220.764,130.773,220.838,130.551,220.838z"/>
                                    </g>
                                    <g>
                                        <path fill="#BE6361"
                                              d="M106.492,239.067c-0.369,0-0.664-0.148-0.886-0.443c-0.221-0.369-0.443-0.517-0.664-0.812        l-0.295-0.369c-0.221-0.221-0.295-0.59-0.221-0.886c0.074-0.295,0.221-0.59,0.517-0.738c0.443-0.295,0.738-0.517,1.107-0.738        l0.221-0.148c0.517-0.369,1.181-0.221,1.55,0.221c0.369,0.517,0.221,1.181-0.221,1.55l-0.221,0.148        c-0.074,0.074-0.148,0.074-0.221,0.148c0.074,0.148,0.148,0.221,0.295,0.369c0.369,0.517,0.221,1.181-0.221,1.55        C106.935,238.993,106.714,239.067,106.492,239.067z"/>
                                    </g>
                                    <g>
                                        <path fill="#BE6361"
                                              d="M117.636,252.646c-0.295,0-0.664-0.148-0.886-0.369c-0.664-0.812-1.328-1.624-1.919-2.362        c-0.369-0.443-0.295-1.181,0.148-1.55c0.443-0.369,1.181-0.295,1.55,0.148c0.59,0.738,1.255,1.476,1.919,2.362        c0.369,0.443,0.295,1.181-0.148,1.55C118.153,252.572,117.858,252.646,117.636,252.646z M111.88,245.635        c-0.295,0-0.664-0.148-0.886-0.369c-0.59-0.738-1.181-1.476-1.919-2.362c-0.369-0.443-0.295-1.181,0.148-1.55        s1.181-0.295,1.55,0.148c0.738,0.886,1.328,1.624,1.919,2.362c0.369,0.443,0.295,1.181-0.148,1.55        C112.396,245.561,112.101,245.635,111.88,245.635z"/>
                                    </g>
                                    <g>
                                        <path fill="#BE6361"
                                              d="M120.072,258.329c-0.295,0-0.59-0.148-0.812-0.369c-0.369-0.443-0.369-1.181,0.148-1.55        c0.221-0.148,0.369-0.295,0.517-0.443c-0.074-0.148-0.221-0.221-0.295-0.369c-0.369-0.443-0.369-1.181,0.148-1.55        c0.443-0.369,1.181-0.369,1.55,0.148c0.443,0.517,0.738,0.886,1.107,1.402c0.148,0.221,0.221,0.517,0.221,0.812        c-0.074,0.295-0.221,0.517-0.443,0.738c-0.443,0.369-0.738,0.517-1.255,0.959        C120.588,258.255,120.293,258.329,120.072,258.329z"/>
                                    </g>
                                    <g>
                                        <path fill="#BE6361"
                                              d="M103.54,271.17c-0.295,0-0.664-0.148-0.886-0.443c-0.369-0.443-0.295-1.181,0.148-1.55        c1.033-0.812,1.919-1.55,2.804-2.214c0.517-0.369,1.181-0.295,1.55,0.148c0.369,0.517,0.295,1.181-0.148,1.55        c-0.886,0.664-1.771,1.402-2.804,2.214C103.983,271.096,103.762,271.17,103.54,271.17z M112.027,264.454        c-0.295,0-0.664-0.148-0.886-0.443c-0.369-0.517-0.295-1.181,0.221-1.55l2.878-2.214c0.517-0.369,1.181-0.295,1.55,0.221        s0.295,1.181-0.221,1.55l-2.878,2.214C112.544,264.381,112.249,264.454,112.027,264.454z"/>
                                    </g>
                                    <g>
                                        <path fill="#BE6361"
                                              d="M98.079,275.451c-0.221,0-0.443-0.074-0.664-0.221l-1.328-0.959c-0.517-0.369-0.59-1.033-0.221-1.55        c0.369-0.517,1.033-0.59,1.55-0.221l0.664,0.517c0.221-0.148,0.369-0.295,0.59-0.517c0.443-0.369,1.181-0.369,1.55,0.148        c0.369,0.443,0.369,1.181-0.148,1.55c-0.517,0.443-0.886,0.738-1.402,1.107C98.522,275.377,98.301,275.451,98.079,275.451z"/>
                                    </g>
                                    <g>
                                        <path fill="#BE6361"
                                              d="M91.511,270.58c-0.221,0-0.443-0.074-0.664-0.221l-2.952-2.14c-0.517-0.369-0.59-1.033-0.221-1.55        c0.369-0.517,1.033-0.59,1.55-0.221l2.952,2.14c0.517,0.369,0.59,1.033,0.221,1.55C92.175,270.432,91.88,270.58,91.511,270.58        z M82.655,264.085c-0.221,0-0.443-0.074-0.664-0.221l-2.952-2.14c-0.517-0.369-0.59-1.033-0.221-1.55        c0.369-0.517,1.033-0.59,1.55-0.221l2.952,2.14c0.517,0.369,0.59,1.033,0.221,1.55        C83.319,263.938,82.95,264.085,82.655,264.085z"/>
                                    </g>
                                    <g>
                                        <path fill="#BE6361"
                                              d="M73.282,259.362c-0.221,0-0.443-0.074-0.664-0.221c-0.517-0.369-0.59-1.033-0.221-1.55        c0.369-0.517,0.664-0.886,1.107-1.402c0.369-0.443,1.033-0.517,1.476-0.148L76.308,257c0.517,0.369,0.59,1.033,0.221,1.55        c-0.369,0.517-1.033,0.59-1.55,0.221l-0.517-0.369c-0.074,0.148-0.221,0.295-0.369,0.443        C73.946,259.215,73.651,259.362,73.282,259.362z"/>
                                    </g>
                                    <g>
                                        <path fill="#BE6361"
                                              d="M62.581,272.868c-0.221,0-0.443-0.074-0.664-0.221c-0.517-0.369-0.59-1.033-0.221-1.55        c0.664-0.812,1.255-1.624,1.771-2.288c0.369-0.517,1.107-0.59,1.55-0.221c0.517,0.369,0.59,1.107,0.221,1.55        c-0.59,0.738-1.181,1.476-1.771,2.288C63.245,272.72,62.95,272.868,62.581,272.868z M67.968,265.93        c-0.221,0-0.517-0.074-0.664-0.221c-0.443-0.369-0.59-1.107-0.148-1.55l1.845-2.288c0.369-0.443,1.107-0.59,1.55-0.148        c0.443,0.369,0.59,1.107,0.148,1.55l-1.845,2.288C68.633,265.783,68.337,265.93,67.968,265.93z"/>
                                    </g>
                                    <g>
                                        <path fill="#BE6361"
                                              d="M58.67,278.034c-0.221,0-0.369-0.074-0.59-0.148c-0.517-0.295-0.664-1.033-0.369-1.55        c0.295-0.443,0.517-0.738,0.738-1.033c0.074-0.148,0.221-0.295,0.369-0.443c0.369-0.517,1.033-0.59,1.55-0.221        c0.517,0.369,0.59,1.033,0.221,1.55c-0.148,0.221-0.295,0.369-0.369,0.517c-0.221,0.295-0.369,0.443-0.59,0.812        C59.408,277.886,59.039,278.034,58.67,278.034z"/>
                                    </g>
                                </g>
                                <g>
                                    <path fill="#F4E1E1"
                                          d="M117.784,183.274c-2.731,0-4.945-2.214-4.945-4.871c0-2.583,2.288-4.723,5.018-4.723h0.074       c2.731,0,4.945,2.214,4.945,4.871C122.802,181.207,120.588,183.274,117.784,183.274       C117.858,183.274,117.784,183.274,117.784,183.274z"/>
                                    <path fill="#BE6361"
                                          d="M117.858,174.713C117.932,174.713,117.932,174.713,117.858,174.713c2.214,0,3.985,1.771,3.985,3.838       c0,2.066-1.771,3.764-3.985,3.764c0,0,0,0-0.074,0c-2.214,0-3.911-1.771-3.911-3.838       C113.946,176.41,115.718,174.713,117.858,174.713 M117.858,172.794L117.858,172.794c-3.247,0-5.978,2.509-5.978,5.683       c-0.074,3.173,2.583,5.756,5.904,5.83h0.074c3.247,0,5.978-2.509,5.978-5.683c0-1.55-0.59-3.026-1.697-4.133       s-2.657-1.697-4.207-1.771C117.932,172.794,117.932,172.794,117.858,172.794L117.858,172.794z"/>
                                </g>
                                <g>
                                    <path fill="#F4E1E1"
                                          d="M68.78,202.388c-2.731,0.074-4.945-2.14-4.945-4.797c0.074-2.657,2.288-4.797,5.018-4.871h0.074       c2.731,0,4.945,2.14,4.945,4.797C73.799,200.174,71.511,202.388,68.78,202.388C68.854,202.388,68.78,202.388,68.78,202.388z"/>
                                    <path fill="#BE6361"
                                          d="M68.854,193.753L68.854,193.753c2.214,0,3.985,1.697,3.985,3.838c0,2.066-1.771,3.838-3.985,3.838       c0,0,0,0-0.074,0c-2.214,0-3.911-1.697-3.911-3.838C64.869,195.524,66.64,193.753,68.854,193.753 M68.854,191.761       L68.854,191.761c-3.247,0.074-5.978,2.731-5.978,5.904c0,1.55,0.59,3.026,1.697,4.133c1.107,1.107,2.583,1.697,4.207,1.624       h0.074c3.247-0.074,5.978-2.731,5.978-5.83c0.074-3.173-2.583-5.83-5.904-5.756C68.854,191.761,68.854,191.761,68.854,191.761       L68.854,191.761z"/>
                                </g>
                                <g>
                                    <path fill="#F4E1E1"
                                          d="M151.363,244.528c-1.328-0.074-2.583-0.664-3.542-1.624c-0.959-0.959-1.402-2.214-1.402-3.542       c0-2.657,2.288-4.649,5.018-4.502h0.074c2.731,0.148,4.945,2.509,4.945,5.166C156.382,242.683,154.168,244.676,151.363,244.528       C151.437,244.528,151.363,244.528,151.363,244.528z"/>
                                    <path fill="#BE6361"
                                          d="M151.437,235.82L151.437,235.82c2.214,0.148,3.985,1.993,3.985,4.133s-1.771,3.69-3.985,3.542       c0,0,0,0-0.074,0c-2.214-0.148-3.911-1.993-3.911-4.133C147.526,237.296,149.223,235.746,151.437,235.82 M151.437,233.827       L151.437,233.827c-3.247-0.148-5.978,2.288-5.978,5.461c-0.074,3.173,2.583,5.978,5.904,6.199h0.074       c3.247,0.221,5.978-2.214,5.978-5.387c0-1.55-0.59-3.1-1.697-4.28c-1.107-1.181-2.583-1.919-4.207-1.993       C151.511,233.827,151.437,233.827,151.437,233.827L151.437,233.827z"/>
                                </g>
                                <g>
                                    <path fill="#F4E1E1"
                                          d="M96.972,280.026c-1.328,0-2.583-0.443-3.542-1.328s-1.402-2.066-1.402-3.321       c0.074-2.583,2.288-4.797,5.018-4.871h0.074c2.731,0,4.945,2.14,4.945,4.797C102.064,277.812,99.777,279.953,96.972,280.026       C97.046,280.026,97.046,280.026,96.972,280.026z"/>
                                    <path fill="#BE6361"
                                          d="M97.046,271.465C97.12,271.465,97.12,271.465,97.046,271.465c2.288,0,3.985,1.697,3.985,3.764       c0,2.066-1.771,3.764-3.985,3.838c0,0,0,0-0.074,0c-2.214,0-3.985-1.624-3.911-3.764       C93.134,273.237,94.906,271.465,97.046,271.465 M97.046,269.473L97.046,269.473c-3.247,0.074-5.978,2.731-6.052,5.83       c0,1.55,0.59,2.952,1.697,4.059c1.107,1.033,2.657,1.624,4.207,1.624h0.074c3.247-0.074,5.978-2.657,6.052-5.756       c0-1.55-0.59-2.952-1.697-4.059s-2.657-1.697-4.207-1.697C97.12,269.473,97.12,269.473,97.046,269.473L97.046,269.473z"/>
                                </g>
                            </g>
                        </g>

                        <linearGradient id="SVGID_37_-i2" gradientUnits="userSpaceOnUse" x1="-110.3174" y1="-1299.3739"
                                        x2="-110.3174" y2="-1406.5477"
                                        gradientTransform="matrix(1 0 0 1 242.4 1511.04)">
                            <stop offset="0" style="stop-color:#6B9C83"/>
                            <stop offset="0.401" style="stop-color:#A6A6A4"/>
                            <stop offset="0.5011" style="stop-color:#9F9FC8"/>
                            <stop offset="0.5908" style="stop-color:#9FCCEC"/>
                            <stop offset="1" style="stop-color:#FFE7B0"/>
                        </linearGradient>
                        <path fill="url(#SVGID_37_-i2)"
                              d="M94.611,134.86l29.963-21.624c12.694-9.151,30.48-6.273,39.631,6.421    c9.151,12.694,6.273,30.48-6.421,39.631l-27.306,19.705"/>
                        <path fill="#FDC068"
                              d="M130.551,178.993L77.71,217.148l10.037-32.915l26.273,93.875c3.1,10.922-3.321,22.214-14.244,25.314    c-9.816,2.731-20-2.14-24.133-11.07l-41.255-88.339c-5.314-11.365-1.55-24.576,8.192-31.661l1.771-1.255l50.185-36.162"/>
                        <g>
                            <path fill="#2B2B2B"
                                  d="M247.304,582.609l-85.314-0.369c-4.428,0-8.118-3.616-8.192-8.044l-0.221-10.775l53.875,0.738     l40.812,10.258C253.134,575.672,252.249,582.683,247.304,582.609z"/>
                        </g>
                        <g>
                            <g>
                                <path fill="#2B2B2B"
                                      d="M84.352,582.609L5.164,551.096c-4.133-1.624-6.199-6.273-4.649-10.48l3.764-10.111l49.889,20.443      l34.244,24.502C92.323,578.255,88.928,584.454,84.352,582.609z"/>
                            </g>
                        </g>
                        <path fill="#5D5D5D"
                              d="M216.16,42.093l-36.162-2.878l-2.066,19.114h-10.184l-13.875,19.779l4.945-39.705    c1.845-13.506,14.17-23.911,27.749-23.542l3.542,0.074C204.795,15.303,216.382,27.406,216.16,42.093L216.16,42.093z"/>
                        <path fill="#FDC068"
                              d="M172.839,65.93l-6.273-0.738c-3.469-0.443-5.978-3.542-5.535-7.011l0.886-7.232    c0.443-3.469,3.542-5.978,7.011-5.535l0,0c3.469,0.443,5.978,3.542,5.535,7.011L172.839,65.93z"/>
                        <g>
                            <path fill="#BE6361"
                                  d="M197.046,2.831L197.046,2.831c-3.69,0.812-7.601,0.443-11.07-0.959l-1.033-0.443     c-11.513-4.797-24.428,3.026-25.535,15.424l-1.845,20.295l60.148,5.535l1.845-20.074C220.662,10.137,209.297,0.1,197.046,2.831z"/>

                            <rect x="181.19" y="2.758"
                                  transform="matrix(0.0916 -0.9958 0.9958 0.0916 138.1243 217.2985)" fill="#2B2B2B"
                                  width="13.948" height="60.369"/>
                            <g>
                                <path fill="#BE6361"
                                      d="M250.109,46.89c-0.074,0-0.074,0-0.148,0L124.869,35.377c-0.664-0.074-1.181-0.664-1.107-1.328      c0.074-0.664,0.664-1.181,1.328-1.107l125.092,11.439c0.664,0.074,1.181,0.664,1.107,1.328      C251.289,46.373,250.699,46.89,250.109,46.89z"/>
                            </g>
                        </g>
                        <g>
                            <path fill="#2B2B2B"
                                  d="M167.895,166.447l-11.661-0.148l3.026-10.111c3.838-13.727-0.812-28.413-11.734-37.565l-17.196-14.244     l7.085-8.487l17.196,14.244c14.317,11.882,20.369,31.144,15.351,49.004L167.895,166.447z"/>
                        </g>
                        <g>
                            <path fill="#2B2B2B"
                                  d="M75.718,141.207h-23.1c-0.664,0-1.255-0.517-1.255-1.255c0-0.738,0.517-1.255,1.255-1.255h23.1     c4.354,0,7.897-3.542,7.897-7.897v-7.749c0-0.664,0.517-1.255,1.255-1.255c0.738,0,1.255,0.517,1.255,1.255v7.749     C86.123,136.484,81.474,141.207,75.718,141.207z"/>
                        </g>
                    </g>
                    <g>
                        <path fill="#2B2B2B"
                              d="M211.954,195.82c-0.443,0-0.812-0.295-0.959-0.738l-5.83-24.354c-0.148-0.517,0.221-1.033,0.738-1.181    c0.517-0.148,1.033,0.221,1.181,0.738l5.83,24.354c0.148,0.517-0.221,1.033-0.738,1.181    C212.101,195.82,212.027,195.82,211.954,195.82z"/>
                    </g>
                    <g>
                        <path fill="#2B2B2B"
                              d="M140.588,399.362c-0.148,0-0.295,0-0.443-0.074c-0.443-0.221-0.664-0.812-0.443-1.255    c1.181-2.435,4.576-11.956,4.797-12.768l16.531-71.07c0.148-0.517,0.664-0.812,1.181-0.738c0.517,0.148,0.812,0.664,0.738,1.181    l-16.531,71.218c-0.148,0.443-3.616,10.406-4.945,12.989C141.253,399.141,140.957,399.362,140.588,399.362z"/>
                    </g>
                    <g>
                        <path fill="#2B2B2B"
                              d="M65.681,391.613c-0.517,0-0.959-0.443-0.959-0.959v-21.55c0-0.517,0.443-0.959,0.959-0.959    s0.959,0.443,0.959,0.959v21.55C66.64,391.17,66.197,391.613,65.681,391.613z"/>
                    </g>
                    <g>
                        <path fill="#2B2B2B"
                              d="M93.725,206.521c-0.443,0-0.812-0.295-0.959-0.664l-4.797-16.827c-0.148-0.517,0.148-1.033,0.664-1.181    c0.517-0.148,1.033,0.148,1.181,0.664l4.797,16.827c0.148,0.517-0.148,1.033-0.664,1.181    C93.872,206.521,93.799,206.521,93.725,206.521z"/>
                    </g>
                    <g>
                        <path fill="#2B2B2B"
                              d="M237.12,227.923c-0.148,0-0.221,0-0.369-0.074l-7.601-3.1c-0.517-0.221-0.738-0.738-0.517-1.255    c0.221-0.517,0.738-0.738,1.255-0.517l7.601,3.1c0.517,0.221,0.738,0.738,0.517,1.255    C237.858,227.702,237.489,227.923,237.12,227.923z"/>
                    </g>
                    <g>
                        <path fill="#2B2B2B"
                              d="M181.4,7.849c-0.443,0-0.812-0.295-0.959-0.664c-0.148-0.517,0.148-1.033,0.664-1.181l12.989-3.69    c0.517-0.148,1.033,0.148,1.181,0.664s-0.148,1.033-0.664,1.181l-12.989,3.69C181.548,7.849,181.474,7.849,181.4,7.849z"/>
                    </g>
                </g>

            </g>
        </g>
    </g>

    <!-- ITEM 3 -->
    <g>
        <defs>
            <clipPath id="clip-path-id-viewbox-item-3">
                <rect x="0.0" y="0.0" width="298.334" height="3.035"/>
            </clipPath>
        </defs>
        <g transform="translate(104.0 1235.0) rotate(0.0 268.0 2.5) scale(1.7966440298457433 1.6474464579901154)">
            <g clip-path="url(#clip-path-id-viewbox-item-3)" transform="translate(-0.0 -0.0)">
                <title>line_4</title>
                <g id="Layer_2-i3" data-name="Layer 2">
                    <g id="Layer_1-2-i3" data-name="Layer 1">
                        <rect width="298.334" height="3.035" fill="#2b2b2b"/>
                    </g>
                </g>
            </g>
        </g>
    </g>

</svg>
