<?xml version="1.0" standalone="no"?>
<!DOCTYPE svg PUBLIC "-//W3C//DTD SVG 20010904//EN"
 "http://www.w3.org/TR/2001/REC-SVG-20010904/DTD/svg10.dtd">
<svg version="1.0" xmlns="http://www.w3.org/2000/svg"
 width="1479.000000pt" height="1479.000000pt" viewBox="0 0 1479.000000 1479.000000"
 preserveAspectRatio="xMidYMid meet">
<metadata>
Created by potrace 1.14, written by Peter Selinger 2001-2017
</metadata>
<g transform="translate(0.000000,1479.000000) scale(0.100000,-0.100000)"
fill="#000000" stroke="none">
<path d="M7287 13893 c-1 0 -42 -4 -92 -8 -49 -3 -101 -8 -115 -10 -14 -2 -59
-7 -100 -10 -41 -3 -82 -8 -90 -10 -8 -2 -40 -7 -70 -10 -67 -7 -310 -50 -402
-70 -67 -15 -188 -42 -219 -49 -182 -44 -531 -155 -666 -212 -17 -8 -34 -14
-37 -14 -4 0 -60 -22 -125 -50 -442 -184 -833 -406 -1241 -703 -52 -38 -99
-75 -105 -81 -5 -6 -26 -23 -45 -36 -19 -14 -46 -34 -60 -46 -14 -12 -73 -63
-132 -113 -115 -98 -117 -100 -259 -237 -388 -377 -742 -829 -998 -1276 -10
-18 -35 -62 -56 -98 -55 -96 -185 -360 -239 -485 -26 -60 -51 -119 -56 -130
-93 -206 -259 -738 -304 -975 -2 -14 -14 -68 -24 -120 -11 -52 -23 -115 -27
-140 -3 -25 -13 -85 -20 -135 -8 -49 -17 -117 -21 -150 -3 -33 -8 -67 -9 -76
-2 -8 -6 -55 -10 -105 -4 -49 -9 -102 -12 -119 -3 -22 -14 -536 -13 -631 0 -9
-158 -12 -608 -12 -334 0 -618 -1 -632 -1 -26 -1 -26 -1 -24 -88 2 -92 14
-365 20 -443 6 -86 13 -162 19 -213 26 -225 41 -323 91 -608 4 -22 67 -301 79
-349 80 -324 240 -787 387 -1120 77 -174 253 -517 349 -679 23 -39 168 -275
179 -291 161 -238 332 -474 387 -535 10 -11 45 -54 78 -95 33 -41 62 -77 65
-80 3 -3 39 -43 80 -90 97 -111 170 -188 306 -324 161 -162 245 -239 414 -381
52 -44 97 -83 100 -86 10 -11 237 -186 325 -250 387 -281 881 -561 1330 -753
209 -90 458 -184 590 -222 28 -8 57 -18 65 -21 8 -3 21 -7 27 -9 7 -1 41 -11
75 -22 50 -17 287 -80 358 -97 127 -30 414 -87 510 -101 34 -5 52 -8 115 -18
17 -2 73 -10 125 -16 52 -6 109 -13 125 -15 17 -2 68 -7 115 -10 47 -4 96 -8
110 -11 50 -7 349 -18 530 -17 287 0 620 19 825 48 17 2 53 7 80 10 28 4 61 8
75 11 14 2 45 6 70 9 25 3 56 8 70 11 14 2 35 6 46 8 12 3 37 7 55 10 434 73
974 230 1414 411 17 7 56 24 88 39 32 14 59 26 62 26 5 0 147 66 275 128 441
215 896 506 1301 833 53 43 103 84 110 91 8 7 46 40 84 73 154 132 473 445
604 593 35 40 75 84 88 100 68 75 309 381 385 487 424 592 741 1218 968 1910
77 238 183 645 206 793 3 20 9 55 14 77 5 22 18 96 29 165 19 117 24 155 36
248 2 20 7 55 9 77 3 22 8 74 11 115 3 41 8 86 10 100 7 48 17 266 18 419 l2
154 -1298 -1 c-714 0 -1300 -1 -1302 -3 -2 -2 -6 -72 -9 -156 -6 -155 -11
-230 -22 -318 -11 -90 -14 -110 -17 -135 -3 -14 -10 -61 -17 -105 -6 -44 -23
-132 -37 -195 -28 -132 -26 -121 -53 -220 -11 -41 -22 -82 -24 -90 -9 -35 -70
-219 -86 -260 -90 -227 -119 -295 -163 -383 -28 -56 -51 -106 -53 -112 -4 -20
-159 -284 -231 -395 -170 -259 -340 -467 -563 -690 -86 -85 -179 -175 -208
-200 -29 -25 -59 -50 -65 -55 -28 -25 -205 -163 -237 -185 -19 -13 -37 -27
-40 -30 -10 -13 -189 -129 -312 -203 -457 -273 -1053 -486 -1548 -553 -25 -3
-53 -8 -63 -10 -10 -2 -46 -6 -80 -9 -34 -3 -73 -8 -87 -10 -14 -2 -67 -7
-117 -10 -92 -7 -93 -6 -94 17 0 13 -1 209 -1 435 l-1 413 -41 1 c-117 3 -331
17 -366 24 -8 2 -44 6 -80 10 -36 3 -72 8 -80 10 -8 2 -31 7 -50 10 -19 3 -46
8 -60 10 -14 3 -36 7 -50 10 -37 7 -111 23 -137 29 -167 42 -349 100 -488 156
-116 46 -346 154 -430 202 -338 193 -565 366 -826 628 -475 478 -797 1045
-965 1700 -15 61 -44 198 -54 260 -7 41 -14 84 -16 95 -2 11 -6 43 -9 70 -4
28 -8 61 -10 75 -23 150 -24 595 -1 777 2 16 7 57 11 93 4 36 9 74 11 85 3 11
7 35 10 54 3 18 8 43 10 55 2 11 7 37 10 56 7 42 61 263 74 305 127 404 265
698 471 1008 58 86 186 261 212 290 7 7 41 46 76 87 35 41 127 138 205 214
384 378 823 653 1341 841 182 66 474 141 645 165 36 5 81 12 100 14 110 16
259 28 471 35 14 1 16 104 16 1107 l0 1106 -174 -4 c-96 -1 -175 -4 -176 -5z"/>
</g>
</svg>
